<?xml version="1.0" encoding="UTF-8"?>
<svg width="591px" height="125px" viewBox="0 0 591 125" version="1.1" xmlns="http://www.w3.org/2000/svg" xmlns:xlink="http://www.w3.org/1999/xlink">
    <!-- Generator: Sketch 50 (54983) - http://www.bohemiancoding.com/sketch -->
    <title>Mark Foster</title>
    <desc>Created with Sketch.</desc>
    <defs></defs>
    <g id="Page-1" stroke="none" stroke-width="1" fill="none" fill-rule="evenodd">
        <g id="Desktop-HD-Copy-15" transform="translate(-200.000000, -64.000000)" fill="#FFFFFF">
            <path d="M242.0246,111.290776 L244.005369,108.676161 L244.322292,108.5177 L248.917675,102.813086 L249.155367,102.258471 L250.898443,100.356933 L250.977674,100.277702 L251.690751,99.0100103 L252.166135,98.772318 L254.622288,95.5238575 L257.712288,91.2453972 C257.712288,91.2453972 257.791518,91.0869357 257.870749,91.007705 L258.425364,89.9777053 L258.821518,88.8684749 L259.772287,87.7592444 L260.960748,85.6200143 L261.277671,85.0653991 L261.990748,83.6392457 L262.307671,82.926169 L263.33767,81.4207848 L263.813055,80.3115544 L264.36767,79.2815547 C264.843055,78.251555 265.239208,77.3800168 265.556131,76.4292478 L265.714593,75.7954019 L265.873054,75.6369404 C266.031516,75.1615559 266.110747,74.6069407 266.189977,74.210787 L265.793824,73.6561718 L265.793824,72.943095 L265.714593,72.6261721 L265.556131,71.7546339 L265.476901,70.8830957 C264.129978,70.0115575 261.436133,69.7738652 260.168441,70.2492497 L257.316134,71.3584801 L256.444596,71.7546339 L256.286134,71.7546339 L253.513058,72.943095 L253.433827,73.0223258 L252.562289,73.4184795 L252.245366,73.6561718 L251.373828,74.0523255 L250.739982,74.210787 C249.313829,74.8446329 247.966906,75.5577096 246.619983,76.2707863 L246.540752,76.2707863 C246.30306,76.4292478 246.065368,76.5877093 245.827676,76.6669401 L244.084599,78.0138627 L243.529984,78.4892472 L242.816907,78.568478 L241.707677,78.9646317 L241.469985,79.0438624 L240.9946,79.3607854 L240.836139,79.5192469 L236.795371,82.609246 L236.557679,82.6884767 L235.60691,83.4015534 L235.60691,83.5600149 L235.527679,83.5600149 L232.516911,85.699245 L232.199988,85.9369373 L231.962295,86.016168 L230.694603,86.5707832 L229.902296,87.2046292 L229.902296,87.3630907 L229.030758,88.0761674 L228.396912,88.3138596 L226.495374,89.8192438 L226.09922,89.8192438 L224.514605,91.324628 L222.771529,92.3546276 L219.998453,94.4938578 L219.443838,95.2069345 L218.730761,95.7615497 L218.413838,96.0784727 L216.987684,97.1877031 L216.987684,97.3461646 L216.749992,98.0592413 L216.274608,98.2177028 L215.4823,98.6930873 L214.689993,99.089241 L214.610762,99.089241 L214.214608,99.406164 L213.897685,99.5646255 L213.501532,99.723087 L209.777687,102.496163 L209.698456,103.130009 L209.539994,103.605393 L208.509995,104.31847 L207.479995,104.31847 L206.766918,104.793855 L206.687688,105.110778 L206.449995,105.190008 L206.053842,106.299239 L205.89538,106.933085 C206.687688,106.853854 207.083841,108.121546 206.212303,108.755392 L205.419996,109.151546 L205.261534,109.310007 L205.182303,109.547699 L204.389996,109.943853 L203.122304,110.894622 L202.329997,111.370007 L201.696151,111.132314 L201.537689,110.894622 C201.379228,110.894622 201.141535,110.894622 200.983074,110.815391 C200.349228,110.498468 200.111536,110.102315 200.111536,109.547699 C200.269997,108.755392 201.062305,107.646161 202.171535,106.299239 L202.884612,105.506931 L202.963843,105.34847 L202.963843,105.190008 L203.359996,104.952316 L203.597689,104.714624 L203.439227,104.31847 L203.597689,104.31847 L204.231534,103.922316 L204.310765,103.922316 L204.310765,103.763855 L204.548457,103.763855 L205.023842,103.130009 L205.103073,103.050778 L205.340765,102.575394 L205.816149,102.258471 L206.053842,101.783086 L206.766918,101.07001 L207.559226,100.832317 L207.796918,100.515394 L208.272302,100.277702 L208.826918,100.04001 L208.985379,99.9607792 L209.381533,99.723087 L209.698456,99.406164 L209.856917,99.3269332 L210.569994,98.6930873 L210.886917,98.3761643 L211.20384,98.1384721 L211.599994,97.7423183 L211.837686,97.5838568 L211.996148,97.1084724 L212.154609,96.9500109 L212.709224,97.0292416 L215.878454,94.73155 L215.878454,94.6523193 L216.749992,93.9392426 L217.146146,93.7015503 L217.383838,93.6223196 C218.889222,92.4338584 220.236145,91.5623202 221.028452,90.9284742 L224.276913,88.7100134 L224.435375,88.5515519 L224.98999,88.1553981 L225.544605,87.6007829 L226.019989,87.2838599 L226.257682,86.8877062 L226.416143,86.650014 L227.683835,86.1746295 L228.793066,85.5407836 L229.981527,84.9069376 L231.486911,83.9561686 C231.962295,83.6392457 232.516911,83.4015534 233.071526,83.0846304 L233.150757,82.8469382 L233.705372,82.3715537 L233.863833,82.2130922 L234.735371,81.9754 L234.973064,81.7377078 L235.448448,81.5000155 L235.923833,81.341554 L237.74614,80.1530929 L238.142293,79.6777084 L238.459216,79.5192469 L238.934601,79.1230932 L239.093062,78.9646317 L239.330755,78.4892472 L239.489216,78.3307857 L240.123062,78.4100165 L240.756908,78.251555 L240.836139,78.251555 L242.0246,77.5384783 L242.341523,77.300786 L242.896138,76.6669401 L243.213061,76.7461708 L243.450753,76.8254016 C244.16383,76.5084786 244.956138,76.0330941 245.748445,75.6369404 L245.906907,75.3200174 L246.223829,75.1615559 L246.778445,75.0823252 L247.174598,74.7654022 L247.253829,74.8446329 L247.491521,74.6861714 L247.570752,74.6069407 L247.966906,74.4484792 C249.868444,73.4977103 251.928443,72.5469413 253.909212,71.6754031 L254.384596,71.2792494 L255.335365,71.0415572 C255.414596,71.0415572 255.493827,71.0415572 255.573057,70.9623264 L256.127673,70.7246342 L258.663057,69.536173 L259.930748,69.3777115 L260.168441,69.3777115 C260.326902,69.3777115 260.406133,69.3777115 260.564594,69.2984808 C262.069979,68.902327 267.299208,67.7930966 268.64613,70.0115575 C269.042284,70.6454034 269.200746,71.4377109 269.121515,72.3092491 L269.359207,72.943095 L269.359207,73.3392488 L269.121515,74.210787 L268.5669,75.2407867 L268.329207,76.5084786 L268.091515,77.0630938 L267.695361,77.7761705 L267.378438,78.251555 L267.378438,78.7269395 L266.744593,79.3607854 L266.665362,79.6777084 L266.348439,80.1530929 L264.922285,82.609246 L264.922285,82.926169 L265.001516,83.1638612 L264.526132,83.3223227 L263.654593,84.6692454 L263.575363,84.9861683 L263.33767,85.2238606 L263.25844,85.2238606 L262.466132,86.650014 C260.326902,90.2946283 257.870749,93.4638581 255.335365,96.7915494 L255.256134,97.0292416 L255.097673,97.0292416 L254.622288,97.7423183 L253.433827,99.3269332 L253.433827,99.406164 L252.562289,100.356933 L249.551521,104.476932 L248.838444,105.269239 L246.382291,108.676161 L244.005369,111.370007 L243.292292,112.320775 L241.549216,114.776929 L240.836139,115.410775 L238.617678,118.183851 L238.379986,118.976158 L237.904601,118.976158 L236.71614,120.481542 L236.557679,120.798465 L236.478448,120.719234 L236.082294,121.115388 L235.844602,121.828465 L234.893833,123.254618 L234.893833,123.492311 L234.259987,123.650772 L232.913064,125.55231 L232.199988,127.057694 L231.883065,127.533079 L231.249219,128.008463 L230.932296,128.72154 L229.426911,130.781539 L229.030758,131.732308 L228.23845,132.683077 L227.683835,133.475384 L228.713835,132.524616 L228.793066,132.524616 C229.823065,131.336154 230.932296,130.068462 232.199988,128.80077 L232.199988,128.72154 L232.754603,127.850002 L233.626141,127.057694 L234.259987,125.948464 L234.656141,125.55231 L235.131525,124.918464 L235.923833,124.363849 L236.795371,123.492311 L238.379986,122.303849 L238.459216,122.224619 L238.776139,122.066157 C238.85537,121.907696 239.013832,121.749234 239.172293,121.670003 L239.489216,120.877696 L239.568447,120.877696 L239.726908,120.719234 L240.123062,120.719234 L240.9946,119.768466 L241.153062,119.610004 L241.311523,119.372312 L241.549216,119.293081 C243.450753,117.391543 245.352291,115.648467 247.33306,113.82616 L248.046137,112.716929 L248.759213,112.241545 L248.759213,112.400006 L251.769982,109.706161 L251.849212,109.62693 L252.64152,108.913853 L252.720751,108.913853 L253.75075,108.042315 L254.067673,107.566931 L255.81075,106.299239 L257.870749,104.714624 L258.029211,104.556162 L259.05921,103.605393 L259.534595,103.367701 C260.009979,102.892317 260.643825,102.575394 261.19844,102.17924 L261.19844,102.100009 L261.356902,102.020779 L261.753056,101.783086 L261.832286,101.466163 L262.386902,101.14924 L262.862286,100.753087 L264.763824,99.3269332 L265.080747,98.8515488 L265.556131,98.8515488 L265.556131,98.9307795 L266.823823,98.0592413 L267.695361,97.2669339 L267.933054,96.8707801 L268.487669,96.5538572 L268.725361,96.1577034 L269.279976,95.682319 L269.517669,95.5238575 L271.736129,94.73155 L273.399975,93.7807811 L273.95459,93.3053966 L274.271513,93.0677044 L276.01459,92.1961662 L276.569205,91.9584739 L276.648436,91.9584739 C276.965359,91.8000124 277.282282,91.5623202 277.599205,91.324628 L277.916128,91.007705 L279.104589,90.373859 L279.421512,90.056936 L279.738435,90.056936 L280.926896,89.4230901 L281.243819,89.1853978 L281.798434,88.7892441 L282.986895,88.5515519 L283.066126,88.6307826 C284.492279,88.1553981 285.839202,87.9177059 287.027663,88.1553981 C287.582279,88.3138596 287.899202,88.4723211 288.057663,88.9477056 C288.136894,89.4230901 288.136894,89.8984745 288.057663,90.2946283 L288.136894,90.2946283 L288.453817,90.6115513 L288.612278,90.9284742 L288.691509,91.324628 L288.612278,91.324628 L288.533047,91.9584739 L288.612278,91.8792432 L288.691509,92.0377047 L288.612278,92.3546276 L288.533047,92.9092429 L288.295355,93.4638581 L288.216125,93.5430888 L288.216125,93.6223196 L288.057663,93.7807811 L287.978432,94.0184733 L288.136894,94.1769348 L287.978432,94.1769348 L287.661509,94.4938578 L287.582279,94.4938578 L287.423817,94.5730885 L287.265356,94.8107808 L287.027663,94.8107808 L286.869202,94.8900115 L286.393817,95.365396 L286.314587,95.8407804 L286.076894,96.2369342 L285.443048,96.7123186 L284.57151,97.9800106 L284.57151,98.1384721 L284.492279,98.1384721 L284.413049,98.2177028 L284.333818,98.455395 L284.175356,98.8515488 L283.620741,99.6438562 L283.224588,100.832317 L282.828434,101.307702 L282.590742,101.466163 L282.194588,101.941548 L281.877665,102.416932 L281.560742,102.813086 L281.006127,103.367701 L280.926896,103.526163 L280.847665,103.763855 L280.768434,103.843086 L280.609973,103.843086 L279.738435,104.952316 L279.579973,105.269239 L279.025358,105.903085 L278.708435,106.37847 L277.678435,107.566931 L277.519974,107.883854 L276.727666,108.834623 L273.241514,113.667698 L273.003821,114.222313 L272.924591,114.301544 L272.924591,114.380775 L272.766129,114.539236 L272.686898,114.776929 L272.84536,114.93539 L272.686898,114.93539 L272.369975,115.252313 L272.369975,115.410775 L271.973822,115.648467 L271.81536,115.886159 L271.656899,115.96539 L271.260745,116.361543 C271.260745,116.361543 271.181514,116.440774 271.181514,116.520005 L271.102284,116.916159 L270.864591,117.312312 L270.468438,117.629235 L270.151515,117.866928 L269.042284,119.372312 L268.963053,119.610004 L268.883823,119.530773 L268.5669,119.926927 L268.408438,120.719234 L267.5369,122.224619 L267.5369,122.541542 L267.140746,122.700003 L265.952285,124.918464 L265.318439,126.423848 L265.001516,127.057694 L264.605362,127.612309 L264.288439,128.404617 L262.149209,131.336154 L261.832286,132.366154 L261.039979,133.475384 L260.564594,134.505384 L259.217672,138.070768 L259.613825,138.149998 L259.693056,137.991537 L260.326902,137.357691 L261.039979,136.327691 L261.594594,135.931538 L262.307671,135.456153 L262.703825,135.059999 L263.099978,134.822307 L262.862286,134.663846 L262.941517,134.426153 L263.179209,134.267692 L263.25844,134.267692 L263.33767,134.346923 L263.179209,134.584615 L263.33767,134.426153 L263.813055,134.188461 L263.971516,133.950769 L264.209209,133.950769 L265.318439,133.079231 L265.556131,132.762308 L266.189977,132.286923 L266.665362,131.811539 L267.933054,130.86077 L268.091515,130.623078 L270.943822,128.404617 L271.339976,128.008463 L271.736129,127.770771 L271.81536,127.612309 L272.607668,127.057694 L273.241514,126.423848 L274.192283,125.710771 L274.667667,125.55231 L274.98459,125.393848 L275.459975,124.918464 L275.618436,124.997695 L275.856128,124.601541 L276.331513,124.284618 L276.489974,123.967695 L276.965359,123.730003 L278.074589,122.937695 L278.391512,122.620772 L278.866897,122.303849 L278.946127,122.145388 L279.421512,121.749234 L279.500743,121.590773 L279.579973,121.590773 L279.659204,121.511542 L279.18382,121.511542 L279.342281,120.956927 L279.896896,120.719234 L280.134588,120.719234 L280.29305,120.798465 L280.530742,120.798465 L280.689204,120.640004 L280.926896,120.481542 L281.006127,120.24385 L281.40228,120.006158 L281.481511,119.926927 L281.560742,119.926927 L285.680741,116.203082 L285.839202,115.96539 L286.076894,115.727698 L286.393817,115.252313 L286.63151,115.014621 L286.71074,114.539236 L286.869202,114.380775 L287.423817,114.301544 L287.978432,113.984621 L288.295355,113.82616 L288.691509,113.509237 L288.84997,113.350775 L290.276124,112.162314 L294.316892,108.834623 L294.792276,108.200777 L295.822276,107.646161 L295.901507,107.408469 L297.169199,106.220008 L297.644583,106.140777 L297.961506,105.903085 L298.119968,105.506931 L298.199198,105.427701 L298.278429,105.427701 L303.190735,101.307702 L304.141504,100.832317 L304.379197,100.277702 L305.329966,99.723087 L309.449964,96.4746264 L309.925349,95.5238575 L310.717656,95.5238575 L313.490732,93.2261658 L313.569963,93.1469351 L314.996116,91.8792432 L315.233809,91.5623202 L318.5615,88.9477056 L318.957654,88.5515519 L319.512269,88.2346289 L319.5915,87.9969367 L320.383807,87.2838599 L320.70073,87.2046292 L320.859192,86.8877062 C323.077652,85.3823221 323.077652,85.3823221 325.296113,83.3223227 L325.929959,83.0053997 L327.910728,81.341554 L328.227651,80.7869388 L328.544574,80.7869388 L329.019958,80.6284773 L330.129189,79.8361699 L330.20842,79.5192469 L330.604573,78.9646317 L330.842265,78.8854009 L331.713804,78.568478 L331.951496,78.251555 L332.42688,78.0930935 L332.585342,78.0138627 L334.566111,76.6669401 L334.962264,76.0330941 L335.279187,75.7954019 L335.675341,75.4784789 L335.992264,75.2407867 L336.071495,74.7654022 L336.229956,74.6861714 L336.863802,74.6861714 L337.418417,74.4484792 L338.76534,74.0523255 L339.87457,73.893864 C340.983801,73.576941 342.806108,73.1807873 344.153031,74.3692485 L344.390723,74.2900177 L344.628415,74.4484792 L344.786877,74.6861714 L344.866107,74.6069407 L344.945338,74.6861714 L344.866107,74.7654022 L344.866107,74.9238637 L344.945338,75.1615559 L345.1038,75.5577096 L345.1038,75.9538634 C345.18303,76.1915556 345.262261,76.5084786 345.262261,76.8254016 L345.658415,77.6969398 L345.658415,78.3307857 L345.579184,78.568478 L345.18303,79.6777084 L345.1038,79.7569391 L344.866107,81.1830926 L344.945338,81.341554 L345.024569,81.7377078 L344.945338,81.7377078 L344.866107,82.3715537 L344.945338,82.292323 L345.024569,82.4507845 L344.945338,82.7677075 L344.866107,83.3223227 L344.628415,83.8769379 L344.549184,83.9561686 L344.549184,84.0353994 L344.390723,84.1938609 L344.311492,84.4315531 L344.469954,84.5900146 L344.311492,84.5900146 L343.994569,84.9069376 L343.915338,84.9069376 L343.756877,84.9861683 C343.281493,86.4123218 342.726877,87.7592444 342.172262,89.0269363 L341.93457,90.2153975 L341.538416,91.9584739 L340.191493,94.8900115 L339.636878,95.682319 L338.369186,98.455395 L337.814571,99.2477025 L337.339187,100.04001 L335.833802,102.971548 L335.358418,103.922316 L335.279187,104.001547 C333.853034,106.933085 332.268419,109.943853 330.683804,112.875391 L328.306882,117.391543 L328.069189,117.787697 L327.910728,117.787697 L327.435343,118.817697 L327.435343,119.689235 L327.03919,119.926927 L326.563805,120.085389 L325.692267,121.590773 L324.89996,123.333849 L324.583037,123.571541 L324.107652,124.44308 L323.711498,125.314618 L323.236114,125.869233 L323.790729,125.869233 L323.86996,126.503079 L323.553037,126.899233 L323.315345,126.899233 L323.156883,126.740771 L323.156883,126.344617 L322.998422,126.66154 L322.285345,127.136925 L322.523037,127.612309 L322.364576,127.770771 L322.047653,127.770771 L320.779961,129.751539 L320.70073,130.226924 L319.908423,131.494616 L319.512269,132.286923 L318.165346,134.426153 L318.086115,134.980769 L314.916886,139.893075 L314.679193,140.685382 L314.203809,141.398459 L314.203809,141.636151 L313.332271,142.983074 L312.936117,143.220766 L312.856886,143.696151 L311.589194,145.676919 L311.272271,145.914611 L310.876118,146.389996 L310.559195,146.469227 L310.479964,147.103073 L310.08381,147.578457 L309.846118,147.578457 L309.608426,148.449995 L309.212272,149.083841 L309.053811,149.559226 L308.578426,150.272302 L307.865349,150.985379 L307.231503,151.856917 L305.80535,154.471532 L305.80535,154.867686 L305.567658,154.867686 L305.567658,155.105378 L305.488427,155.105378 L305.013043,156.135378 L304.616889,156.927685 L304.537658,156.927685 C302.873812,159.779992 301.52689,162.473837 300.179967,165.484606 L300.179967,165.880759 L299.942275,166.435375 L299.942275,166.593836 L299.625352,167.544605 L299.38766,167.782297 L299.38766,168.019989 L298.753814,169.604604 L298.516121,169.763066 L298.436891,170.000758 L298.35766,170.079989 C298.278429,170.15922 298.278429,170.23845 298.278429,170.317681 L298.278429,170.555373 L298.040737,171.030758 C297.961506,171.109989 297.882275,171.26845 297.882275,171.347681 L297.882275,171.506142 L297.644583,172.29845 L297.406891,172.853065 L297.169199,173.011526 L296.535353,175.150757 C295.743045,177.210756 294.713046,179.587678 294.316892,181.964601 L294.316892,183.073831 L294.396123,183.786908 L294.475353,184.0246 L294.554584,184.420754 L294.633815,184.499984 L294.713046,184.499984 L294.792276,184.579215 L294.713046,184.658446 L295.267661,185.213061 L295.743045,185.926138 L295.822276,186.243061 L295.901507,186.797676 C296.21843,186.639215 296.456122,186.243061 296.614584,185.767676 C297.406891,184.737677 299.149967,185.292292 298.436891,186.480753 C296.852276,189.412291 291.860739,190.204598 292.0192,185.292292 C292.177662,178.71614 295.18843,172.694603 297.723814,166.98999 C298.674583,164.533837 300.259198,161.998453 301.685351,159.5423 L301.843813,159.146146 L302.160736,158.5123 L302.794582,157.561531 L302.794582,157.4823 L304.062274,154.550763 L304.220735,154.23384 L306.280734,151.143841 C307.073042,149.638457 307.94458,148.133072 308.816118,146.706919 L308.97458,145.914611 L309.687656,145.201535 L311.906117,141.239998 L312.22304,140.685382 L312.381502,140.209998 L312.777656,139.734613 L314.837655,136.406922 L314.996116,136.16923 L315.075347,135.931538 L315.709193,134.980769 L317.135347,132.603846 L317.293808,132.207693 L317.45227,131.97 L318.006885,131.019231 L318.086115,131.019231 L318.719961,129.751539 L319.116115,128.80077 L323.236114,122.224619 L324.345344,120.481542 L324.503806,120.085389 L324.583037,119.926927 L325.454575,118.817697 L325.533806,118.817697 L328.623805,113.430006 L328.782266,113.113083 L329.891497,110.577699 L330.20842,110.419238 L330.525343,109.62693 L330.446112,109.547699 L330.604573,109.389238 L331.872265,106.774623 L332.189188,106.536931 L332.34765,106.299239 L332.902265,105.427701 C332.902265,105.34847 332.981496,105.269239 333.060726,105.110778 C333.060726,105.110778 333.060726,105.031547 333.139957,104.952316 L333.219188,104.556162 L334.249188,101.783086 L334.407649,100.990779 L334.803803,99.089241 L335.913033,97.5838568 L337.339187,94.097704 L338.606879,90.7700127 L339.161494,89.8984745 L339.478417,88.7892441 L339.636878,88.4723211 L339.557647,88.2346289 L339.87457,87.8384752 L340.825339,85.8577065 L341.538416,83.9561686 L342.885339,82.1338615 L343.202262,80.7869388 L343.202262,80.3115544 L343.360723,79.8361699 L343.202262,79.6777084 L343.0438,79.6777084 L342.726877,79.4400162 L342.885339,79.4400162 L342.409954,78.251555 L342.013801,76.9838631 L342.013801,76.4292478 L342.093031,76.0330941 L341.142262,76.5084786 L340.349955,76.5084786 L339.636878,76.4292478 L339.636878,76.5084786 L339.557647,76.5084786 L339.478417,76.4292478 L339.399186,76.4292478 L338.923802,76.5877093 L337.814571,77.1423245 L337.576879,77.3800168 L336.784571,77.8554013 L336.546879,77.934632 L333.377649,79.9946314 L332.506111,80.6284773 L331.555342,81.2623233 L329.970727,82.2130922 L329.019958,82.926169 L324.345344,86.0953988 L323.315345,86.7292447 L323.077652,86.966937 L322.602268,87.3630907 L322.285345,87.4423214 C320.70073,88.5515519 319.433038,89.5023208 318.640731,90.1361668 L317.45227,91.0869357 L317.293808,91.2453972 L316.026116,92.2753969 L315.788424,92.4338584 L315.39227,92.7507814 L315.313039,92.7507814 L315.313039,92.8300121 L315.233809,92.8300121 L315.154578,92.9092429 L314.441501,93.4638581 L314.36227,93.5430888 L312.381502,95.1277037 L311.985348,95.5238575 L311.509964,96.0784727 L310.559195,96.7123186 L309.212272,97.7423183 L308.895349,98.1384721 L304.537658,101.862317 L303.032274,103.288471 L302.63612,103.605393 L301.843813,104.001547 L298.040737,107.329239 L298.040737,107.4877 L297.644583,107.804623 L297.32766,108.042315 L296.931506,108.359238 L296.852276,108.359238 C296.852276,108.438469 296.852276,108.438469 296.773045,108.438469 L296.614584,108.676161 L296.21843,109.072315 L295.663815,109.547699 L295.505353,109.547699 L295.18843,109.785392 L295.029969,110.260776 L294.871507,110.498468 L294.713046,110.65693 L294.396123,110.815391 L294.237661,110.973853 L294.15843,110.973853 L294.0792,111.132314 L293.524584,111.528468 L293.128431,111.845391 L291.385354,113.430006 L290.751508,113.984621 L290.355355,114.618467 L289.246124,115.252313 L289.008432,115.490005 L282.036126,121.749234 L281.877665,122.066157 L281.481511,122.224619 L281.481511,122.462311 L281.006127,122.858465 L280.530742,123.096157 L278.549974,124.839233 L278.549974,124.997695 L278.312281,124.997695 L278.233051,125.076925 L278.233051,125.156156 L278.15382,125.156156 L276.489974,126.66154 L276.410743,126.820002 L275.856128,127.374617 L275.697667,127.612309 L275.063821,128.325386 L274.271513,128.642309 L272.686898,130.068462 C272.369975,130.385385 271.81536,130.702308 271.181514,131.098462 L270.70613,132.207693 L270.468438,132.603846 L269.596899,133.633846 L268.329207,134.10923 L267.695361,133.950769 L267.219977,134.188461 L265.952285,136.010768 L264.36767,137.040768 L263.020747,138.229229 L262.703825,138.783844 L262.307671,139.259229 L262.307671,139.576152 L262.466132,139.576152 L262.466132,139.972306 L262.069979,139.972306 L260.326902,141.081536 L259.376133,142.269997 L258.979979,142.824612 L257.553826,144.409227 L255.573057,145.201535 L254.622288,145.359996 L253.67152,144.805381 L253.67152,144.171535 L253.513058,144.72615 L253.513058,143.379228 L253.67152,142.428459 L253.513058,142.428459 L253.513058,141.873843 L253.829981,142.111536 L254.067673,141.47769 L254.622288,140.843844 L255.097673,139.33846 L256.523826,137.19923 C257.236903,135.693845 258.029211,134.267692 258.821518,133 L259.930748,131.177693 C260.08921,130.86077 260.326902,130.543847 260.564594,130.226924 L260.643825,129.751539 L262.149209,127.453848 L263.496132,125.076925 L264.050747,124.44308 L264.288439,123.730003 L265.793824,121.749234 L266.665362,120.402311 L267.140746,119.610004 L267.299208,119.451543 C267.933054,118.500774 268.487669,117.629235 269.200746,116.678466 L270.309976,114.856159 L270.785361,114.380775 L271.894591,112.875391 C272.053052,112.637698 272.290745,112.400006 272.449206,112.083083 L272.84536,111.449237 L272.84536,111.211545 L272.924591,111.132314 L273.003821,110.973853 L273.320744,110.65693 L273.95459,109.943853 L274.350744,109.547699 L277.12382,105.586162 L277.282282,105.34847 L277.519974,105.110778 L279.817666,101.862317 L280.372281,101.14924 L280.372281,101.07001 L280.768434,100.436164 L280.847665,100.356933 L280.926896,100.119241 L281.164588,99.723087 L281.40228,99.406164 L282.273819,98.2969335 L282.590742,97.5838568 L283.858434,95.4446267 L284.413049,94.3353963 L284.492279,93.7015503 L284.809202,93.2261658 L284.809202,92.3546276 L284.967664,91.4038587 C284.809202,90.9284742 284.254587,90.690782 283.303818,90.8492435 C281.956896,91.1661665 280.768434,91.5623202 279.579973,92.1961662 L279.342281,92.3546276 L279.18382,92.3546276 L275.697667,94.3353963 C275.618436,94.3353963 275.618436,94.414627 275.618436,94.414627 L275.063821,94.8107808 L274.509206,95.2861652 L273.796129,95.7615497 L273.479206,95.9200112 L272.766129,95.9992419 L271.973822,96.6330879 L271.973822,96.7123186 L271.81536,96.7123186 L271.736129,96.6330879 C270.626899,97.2669339 269.596899,97.9800106 268.64613,98.6138565 C268.329207,98.8515488 268.012284,99.0100103 267.774592,99.2477025 L267.616131,99.3269332 L267.140746,99.6438562 L266.982285,99.723087 C265.001516,100.911548 263.25844,101.862317 261.356902,103.367701 C260.802287,103.763855 260.247671,104.160009 259.772287,104.635393 L259.296902,105.190008 L258.742287,105.586162 L258.187672,106.061547 L257.474595,106.536931 L257.316134,106.933085 L257.078442,107.012316 L256.840749,107.012316 L253.909212,109.62693 L252.562289,111.211545 L252.007674,111.76616 L250.343828,113.113083 L249.393059,113.984621 L247.887675,115.252313 L243.0546,120.085389 L243.0546,120.164619 L242.975369,120.24385 L239.806139,123.571541 L239.013832,124.284618 C238.776139,124.680772 238.459216,124.918464 238.221524,125.156156 L238.063063,125.393848 L237.270755,126.186156 L235.60691,127.929232 L235.289987,128.483848 L234.259987,129.276155 L233.863833,129.83077 L233.150757,130.623078 L230.456911,133.396154 L228.793066,135.376922 L227.842297,136.723845 L227.446143,137.19923 L227.287681,138.229229 L226.891528,138.942306 L226.019989,140.606152 L224.514605,141.873843 L223.643067,141.873843 C222.375375,143.220766 221.107683,144.250766 219.919222,144.092304 L219.285376,144.409227 L218.968453,144.013074 L218.968453,143.220766 C218.730761,142.349228 218.809992,142.507689 219.206145,142.111536 L219.206145,142.032305 L219.364607,141.398459 L219.998453,140.44769 L220.394607,139.179998 L221.186914,138.149998 L221.662298,136.961537 L221.82076,136.486153 L222.375375,135.773076 L222.92999,135.13923 L223.326144,134.584615 L223.563836,134.188461 L225.06922,132.603846 L225.06922,132.524616 L225.544605,131.97 L225.782297,131.019231 L225.782297,130.86077 L226.019989,130.781539 L226.574605,130.702308 L227.446143,129.196924 L227.604604,129.038463 L227.921527,128.959232 L228.000758,129.196924 L228.396912,128.642309 L228.634604,127.850002 L229.26845,127.216156 L229.585373,126.740771 L229.823065,126.740771 L229.823065,126.503079 L230.615373,125.631541 L234.418448,120.719234 L234.656141,120.323081 L235.131525,119.847696 L236.240756,118.500774 L236.240756,118.421543 L236.399217,118.025389 L237.349986,117.153851 L237.508448,116.916159 L237.508448,116.757697 L242.0246,111.290776 Z M361.108453,127.057694 L361.346145,126.740771 L361.425376,126.58231 L361.583838,126.344617 L363.009991,124.601541 L363.326914,123.967695 L363.564606,123.730003 L363.643837,123.571541 L363.881529,123.41308 L364.832298,122.38308 L365.149221,121.986926 L365.149221,121.828465 L365.228452,121.907696 L365.466144,121.115388 L365.386913,121.036157 L364.99076,120.956927 L364.277683,120.956927 L363.326914,121.194619 L361.029222,122.066157 L360.474607,122.224619 L360.078453,122.303849 L357.780762,123.730003 L357.701531,123.730003 L357.067685,124.126157 L356.51307,124.363849 L355.958455,124.680772 L354.136148,125.55231 L352.31384,126.58231 L351.600764,126.899233 L350.412303,127.533079 L350.016149,127.69154 L349.06538,128.246155 L348.589995,128.404617 L347.163842,129.276155 L346.688457,129.593078 L346.213073,129.989232 L345.499996,130.226924 L344.78692,130.543847 L342.885382,131.573847 L342.72692,131.732308 L341.934613,132.207693 L341.776151,132.207693 L341.776151,132.286923 L341.063075,132.286923 L340.112306,132.683077 L339.47846,132.683077 C339.240767,132.841539 338.923844,132.920769 338.686152,133 L338.369229,133.237692 L336.784614,133.792307 L336.467691,133.871538 L335.27923,134.346923 L335.120769,134.426153 L334.883076,134.505384 L334.645384,134.505384 L334.17,134.426153 L334.090769,134.426153 C332.823077,134.584615 331.793077,134.346923 331.476154,133.475384 C331.159231,132.445385 331.476154,131.256924 332.03077,129.989232 L332.347693,129.038463 L332.585385,128.959232 L332.664616,128.642309 L332.981539,128.166925 L333.14,127.850002 L333.298462,127.770771 L333.298462,127.850002 L333.456923,127.453848 L334.011538,126.66154 L334.883076,126.027694 L335.041538,125.869233 L335.675384,124.839233 L335.992307,124.44308 L336.626153,123.967695 L337.576922,123.175388 L341.142305,120.006158 L341.142305,119.926927 L341.221536,119.926927 L342.251536,119.055389 L342.489228,118.817697 L343.836151,117.708466 L344.469997,117.312312 L346.529996,115.806928 L346.609227,115.727698 L347.559996,114.697698 L347.956149,114.301544 L348.273072,113.746929 L348.431534,113.667698 L348.986149,113.746929 L349.223841,113.588467 L349.778457,113.430006 L350.09538,113.350775 L350.491533,113.271544 L350.808456,113.033852 L350.808456,112.875391 L351.442302,112.637698 L353.977686,111.370007 L354.453071,110.973853 L354.769994,110.815391 L355.403839,110.65693 L355.562301,110.736161 L355.720762,110.65693 L356.433839,110.419238 L356.671531,110.419238 L357.067685,110.181545 L357.6223,110.102315 L358.097685,109.943853 L358.6523,109.785392 L358.969223,109.706161 L359.76153,109.943853 L360.236915,109.864622 L360.712299,109.864622 L361.029222,109.943853 L361.187684,109.943853 L361.187684,110.023084 L361.504607,110.023084 L361.742299,110.181545 L361.82153,110.340007 L362.138453,110.419238 L362.296914,110.815391 L362.296914,111.528468 L362.059222,111.68693 C361.979991,111.924622 361.742299,112.083083 361.187684,112.637698 C360.949992,112.79616 360.712299,112.716929 360.633069,112.637698 L359.76153,112.875391 L359.206915,112.954621 L357.780762,112.954621 L356.51307,112.79616 L356.51307,112.875391 L356.196147,112.875391 L356.196147,112.79616 L356.037685,112.79616 L355.48307,112.875391 L354.928455,112.875391 L353.819225,113.350775 L352.551533,113.90539 L350.729226,114.697698 L349.461534,115.252313 C348.986149,115.490005 348.589995,115.806928 348.114611,116.123851 C348.03538,116.203082 348.03538,116.203082 348.03538,116.123851 L347.322303,116.678466 L347.243073,116.757697 L347.084611,116.836928 L343.519228,119.451543 L343.202305,119.768466 L342.489228,120.560773 L341.934613,121.115388 L341.379998,121.432311 L340.666921,121.828465 L340.429229,122.066157 L339.716152,122.858465 L339.55769,123.016926 L339.399229,123.254618 L338.44846,124.44308 L338.210768,124.601541 L338.052306,124.760002 L337.814614,124.918464 L337.656153,125.235387 L337.41846,125.55231 L337.259999,125.55231 L337.101537,125.948464 L336.784614,126.344617 L336.626153,126.66154 L336.229999,127.057694 L335.041538,128.483848 L335.041538,128.642309 L335.120769,129.117693 L335.041538,129.276155 L335.041538,129.434616 L334.883076,129.593078 L334.566153,129.83077 L334.328461,130.147693 L333.932308,130.623078 L333.615385,131.098462 L333.615385,131.256924 L333.536154,131.415385 L333.536154,131.89077 L333.694615,132.128462 L333.932308,132.524616 L334.17,132.683077 L335.833845,132.049231 L336.546922,131.89077 L337.656153,131.494616 L337.735383,131.494616 L338.131537,131.415385 C339.161537,131.019231 340.191536,130.543847 341.221536,130.068462 L341.61769,129.83077 L342.172305,129.513847 L342.568459,129.196924 L343.202305,129.196924 C344.073843,128.80077 345.024612,128.404617 345.89615,127.929232 L346.292304,127.612309 L346.846919,127.374617 L346.846919,127.295386 L347.00538,127.216156 L347.243073,126.978463 L347.559996,126.899233 L348.748457,126.344617 L349.382303,126.027694 L349.936918,125.710771 L352.076148,124.601541 L352.630763,124.205387 L354.849224,123.175388 L355.324609,123.016926 L356.750762,122.303849 L357.463839,121.749234 L358.889992,121.036157 L359.286146,120.719234 L359.919992,120.323081 L360.316146,120.006158 L361.266915,119.372312 L362.296914,118.738466 L364.753067,118.183851 L365.703836,118.183851 L366.416913,118.342312 L366.971528,118.659235 L367.288451,118.896927 C367.605374,118.976158 367.763836,119.13462 367.922297,119.451543 L367.922297,119.530773 L368.080759,119.610004 L368.080759,119.926927 L368.001528,120.164619 L368.159989,120.164619 L368.080759,120.323081 L368.001528,120.24385 L367.843066,120.402311 L367.684605,120.640004 L367.526144,120.956927 L367.050759,121.35308 C366.971528,121.511542 366.813067,121.670003 366.654605,121.828465 L366.09999,122.700003 L365.624606,123.096157 L365.386913,123.175388 L364.436144,124.284618 L364.277683,124.44308 L364.277683,124.52231 L364.119221,124.601541 L363.643837,125.235387 L363.485376,125.473079 L363.326914,125.790002 L362.693068,126.66154 C362.534607,126.820002 362.455376,127.057694 362.376145,127.216156 L362.138453,127.850002 L362.059222,127.929232 C361.900761,128.246155 361.82153,128.563078 361.900761,128.72154 C361.900761,128.959232 361.82153,128.80077 362.138453,128.880001 C362.217684,128.880001 362.296914,128.959232 362.376145,128.959232 L362.772299,128.880001 L363.326914,128.880001 L363.485376,128.80077 L364.039991,128.80077 L364.436144,128.72154 L364.594606,128.80077 C365.149221,128.72154 365.624606,128.563078 366.337682,128.404617 L366.971528,128.246155 L367.526144,128.008463 L368.001528,128.008463 L370.774604,127.216156 L371.012296,127.057694 L371.883835,126.820002 L371.883835,126.899233 L372.913834,126.58231 L373.54768,126.265387 L373.864603,126.186156 L374.181526,125.948464 L376.796141,125.235387 L376.796141,125.076925 L377.033833,125.235387 L377.74691,124.997695 L377.984602,124.760002 L381.787678,123.650772 L382.183831,123.650772 L384.1646,123.016926 C384.243831,123.016926 384.323062,123.016926 384.402292,123.096157 L384.560754,123.096157 L384.639985,123.650772 L384.323062,123.888464 L383.689216,123.888464 L382.342293,124.205387 L381.391524,124.680772 L381.074601,124.680772 L379.806909,124.997695 L379.173063,125.235387 L377.350756,126.106925 L376.003833,126.66154 L374.498449,127.136925 L372.755373,127.770771 L372.43845,127.929232 L371.646142,128.246155 L371.249989,128.483848 L370.616143,128.72154 L370.536912,128.72154 L369.982297,128.959232 L369.348451,129.355386 L369.110758,129.434616 L368.952297,129.593078 L366.892298,130.306155 L366.892298,130.464616 L366.813067,130.385385 L366.179221,130.623078 L366.09999,130.781539 L364.753067,131.256924 L363.564606,131.653077 L363.168453,131.97 L363.089222,132.049231 L363.009991,131.89077 L362.772299,131.97 L362.613837,132.128462 L362.455376,132.049231 L362.376145,132.128462 L361.82153,132.286923 L360.949992,132.286923 L360.79153,132.207693 L360.236915,132.207693 L359.840761,132.049231 L359.523838,131.89077 L359.286146,131.573847 L359.365377,131.177693 L359.286146,130.86077 C359.206915,130.543847 359.206915,130.306155 359.365377,129.83077 L359.603069,129.276155 L359.6823,128.959232 L360.236915,128.246155 L360.474607,127.850002 L361.108453,127.057694 Z M384.481537,126.66154 L384.323075,126.978463 L384.956921,126.423848 L386.066152,125.631541 L386.383075,125.393848 L386.541536,125.314618 L386.699998,125.314618 L386.699998,125.235387 L387.333844,124.997695 L387.016921,124.680772 L387.492305,124.680772 L388.918458,123.333849 L389.156151,123.333849 L390.423843,122.066157 L391.849996,121.194619 L393.196919,120.164619 L393.35538,120.006158 L393.434611,120.006158 L394.939995,118.817697 L395.019226,118.738466 L397.237687,117.153851 L397.237687,117.233082 L398.66384,116.282313 L399.059994,115.886159 L399.376917,115.806928 L400.089994,115.331544 L400.248455,115.173082 L400.327686,115.173082 L401.912301,114.222313 L402.546147,113.588467 L403.021531,113.271544 L404.209992,112.79616 L405.081531,112.003852 L405.953069,111.528468 L407.616914,110.973853 L408.329991,110.65693 C408.884606,110.340007 409.835375,109.864622 410.944606,109.389238 L411.41999,108.993084 L412.846144,108.438469 L414.272297,107.963084 L414.509989,107.804623 L415.223066,107.408469 L416.094604,107.091546 L416.649219,106.853854 L417.679219,106.774623 C419.026142,106.37847 420.293834,106.140777 421.323833,106.220008 L421.799218,106.061547 L422.116141,106.37847 C422.512294,106.536931 422.829217,106.774623 423.06691,107.012316 C423.14614,107.091546 423.225371,107.170777 423.225371,107.329239 L423.779986,107.963084 L423.621525,110.023084 L422.670756,111.924622 L421.719987,112.241545 L420.848449,112.241545 L420.373064,111.68693 L420.373064,110.894622 L419.976911,111.211545 L419.976911,110.815391 L420.135372,110.736161 L420.214603,110.340007 L420.135372,109.785392 L419.976911,108.755392 L419.659988,108.359238 L418.471526,108.5177 L417.362296,108.993084 L416.966142,109.072315 L416.332296,108.993084 L415.460758,109.389238 L414.985374,109.468469 L411.816144,110.102315 C410.31076,110.736161 409.043068,111.370007 408.567683,111.607699 L408.092299,111.845391 L407.696145,112.241545 L404.526915,113.90539 L403.338454,114.618467 L402.86307,115.093852 L401.357685,115.886159 L400.961532,116.123851 L400.248455,116.678466 L399.059994,117.470774 L398.584609,118.025389 L396.286918,119.530773 L392.879996,122.38308 L392.404611,123.096157 L391.849996,123.492311 L390.819996,124.601541 L389.869227,125.473079 L389.552304,125.631541 L388.918458,126.027694 L388.363843,126.58231 L388.284612,126.740771 L387.650767,127.295386 L386.93769,128.087694 L386.541536,128.483848 L386.224613,128.72154 L385.432306,129.513847 L385.115383,130.068462 L384.79846,130.306155 L384.481537,130.702308 L383.689229,131.415385 L382.342307,132.762308 L381.946153,133.396154 L381.62923,133.792307 L381.233076,134.505384 L381.074615,134.980769 L380.995384,135.13923 L380.836922,135.535384 L380.361538,136.010768 L379.093846,136.961537 L378.301539,137.516152 L377.588462,137.357691 L377.192308,136.803076 L377.192308,136.723845 C377.033847,136.486153 376.954616,136.248461 377.033847,135.931538 L377.033847,135.614615 L377.192308,135.456153 L377.43,134.505384 L377.271539,134.663846 L377.192308,134.346923 L377.43,133.792307 L377.746923,132.841539 L378.301539,132.049231 L378.380769,131.89077 L378.380769,131.732308 L378.697692,131.494616 L378.935385,131.098462 L378.935385,130.940001 L379.648461,130.385385 L379.806923,130.385385 L380.044615,130.226924 L380.995384,128.880001 L381.549999,128.087694 L381.787691,128.008463 L382.183845,127.216156 L382.65923,126.027694 L383.213845,125.55231 L383.372306,125.076925 L384.243844,123.967695 L384.481537,123.809234 L385.511536,122.224619 L385.511536,121.907696 L386.858459,120.24385 L387.650767,118.896927 L387.96769,118.421543 L388.363843,117.708466 L388.443074,117.470774 L388.601535,117.312312 L389.156151,116.520005 L389.156151,116.282313 L389.631535,115.490005 L390.10692,115.410775 L390.344612,115.569236 L390.819996,115.014621 L391.057689,114.460006 L391.136919,114.063852 L391.136919,113.82616 L390.819996,113.667698 L391.057689,113.430006 L390.978458,113.588467 L391.21615,113.271544 L391.136919,113.192314 L390.819996,113.588467 C390.423843,113.984621 390.10692,113.588467 390.10692,113.192314 L390.265381,113.033852 L390.265381,112.875391 L390.344612,112.637698 L390.582304,112.241545 L390.661535,112.083083 L390.503073,111.845391 L390.423843,111.924622 L390.027689,111.76616 L390.027689,111.528468 L390.18615,111.370007 L390.503073,111.290776 L390.344612,111.290776 L390.503073,111.211545 L390.344612,111.211545 L390.265381,110.894622 L390.582304,110.419238 L390.978458,110.65693 L391.21615,110.260776 L391.21615,109.943853 L391.295381,109.706161 L391.136919,109.62693 L391.533073,109.547699 L391.533073,109.151546 L391.691535,109.072315 L391.849996,109.072315 L392.166919,108.755392 L392.563073,108.755392 L393.117688,108.834623 L393.513842,108.913853 L393.830765,108.755392 L393.830765,108.59693 L394.147688,108.359238 L394.464611,108.438469 L394.702303,108.438469 L394.860764,108.59693 L394.781534,108.676161 L394.38538,108.834623 C395.019226,109.072315 395.336149,109.468469 395.41538,109.864622 L395.49461,109.943853 L395.41538,110.181545 C395.41538,111.132314 394.623072,112.241545 393.751534,113.271544 L393.830765,113.430006 L392.959226,114.539236 L392.483842,114.618467 L391.770765,115.410775 L391.453842,115.806928 L391.21615,116.361543 L391.136919,116.361543 C390.740766,116.916159 390.344612,117.550005 389.869227,118.025389 C389.869227,118.10462 389.789997,118.025389 389.789997,118.025389 L389.314612,118.738466 L389.156151,119.21385 L388.839228,119.768466 L388.126151,120.956927 L387.650767,121.511542 L387.492305,121.828465 L387.016921,122.620772 L386.066152,124.126157 L385.511536,125.314618 L385.036152,126.106925 L384.481537,126.66154 Z M446.439991,95.7615497 L444.855376,97.5838568 L443.349992,99.3269332 L443.349992,99.406164 L443.033069,99.723087 L442.478454,100.356933 L442.478454,100.594625 L440.735378,102.337702 L440.576916,102.813086 L438.675378,105.031547 L437.883071,105.823854 L437.486917,106.140777 L437.249225,106.536931 L436.69461,107.091546 L436.615379,107.329239 L436.060764,108.042315 L435.426918,108.755392 L435.189225,109.230776 L434.55538,110.102315 L433.52538,111.053084 L430.831534,114.301544 L430.276919,115.014621 L430.039227,115.173082 L429.643073,115.331544 L429.484612,115.252313 L428.692304,116.440774 L429.088458,116.599236 L429.32615,116.520005 L429.801535,116.678466 L429.880766,116.836928 L430.514612,117.470774 L430.593842,117.946158 L431.227688,118.738466 L431.782303,119.13462 L432.257688,119.610004 L432.336919,119.293081 L432.733072,119.293081 L432.970765,119.610004 L433.287688,119.530773 L433.446149,119.21385 L434.713841,118.263081 L434.951533,118.263081 L435.268456,118.10462 L435.506148,118.10462 L435.743841,117.787697 L435.981533,117.550005 L436.139994,117.550005 L436.456917,117.153851 L436.932302,116.995389 L437.169994,116.678466 L437.645379,116.361543 L438.199994,116.044621 L440.022301,114.697698 L440.418455,114.222313 L440.576916,114.222313 L442.161531,113.588467 L443.508454,112.79616 L443.825377,112.320775 L444.063069,112.241545 L444.379992,112.241545 L444.538453,112.083083 L445.964607,111.370007 L446.28153,111.370007 L446.519222,111.211545 L448.499991,110.498468 L448.658452,110.340007 L449.133837,110.181545 L449.767683,110.023084 L451.827682,109.230776 L452.223836,109.072315 L452.461528,109.072315 L452.619989,109.151546 L453.253835,109.072315 C453.887681,108.913853 454.521527,108.834623 455.155373,108.834623 L455.947681,108.59693 L457.294603,108.676161 L458.324603,109.389238 L459.116911,109.706161 L459.433834,110.419238 L459.513064,110.577699 L459.671526,110.65693 L459.988449,110.973853 L460.14691,111.528468 L460.226141,111.528468 L459.988449,112.320775 L459.03768,112.954621 L457.849219,112.479237 L457.690757,112.479237 L456.89845,111.528468 L456.264604,110.65693 L455.947681,110.419238 L455.472296,110.577699 L455.393066,110.577699 L454.679989,110.419238 L452.144605,110.498468 L450.797682,111.290776 L450.480759,111.370007 L450.480759,111.290776 L450.163836,111.290776 L449.52999,111.370007 L449.292298,111.370007 L448.341529,111.76616 L447.866145,112.003852 L446.360761,112.241545 C444.776146,112.954621 443.1123,113.90539 441.527685,114.93539 L441.369224,115.093852 L441.131531,115.173082 L440.735378,115.410775 L440.656147,115.569236 L440.497685,115.569236 C440.497685,115.648467 440.418455,115.648467 440.339224,115.727698 L440.339224,115.806928 L439.309224,116.678466 L438.913071,116.757697 L436.456917,118.976158 L435.506148,119.768466 L434.793072,120.560773 L433.604611,121.27385 L435.030764,122.779234 L435.347687,123.096157 L436.298456,123.967695 L436.853071,124.44308 L438.437686,126.265387 L438.83384,126.423848 L442.319993,130.464616 L442.953839,130.781539 L443.429223,131.415385 L443.746146,131.573847 L444.617684,132.603846 L444.855376,133.079231 L445.093069,133.316923 L446.519222,134.901538 L446.756914,135.218461 L447.073837,135.535384 L447.153068,135.931538 L447.549222,136.16923 L447.945375,136.565384 L447.945375,136.803076 L448.42076,137.19923 L448.975375,137.674614 L449.292298,137.991537 L449.846913,138.625383 L450.401529,139.33846 L452.540759,141.794613 L453.174605,142.190766 L453.174605,142.824612 L452.857682,142.983074 L452.382297,142.983074 L452.144605,142.745382 L451.906913,142.190766 L451.58999,142.032305 L451.669221,141.873843 L451.352298,141.794613 L450.480759,141.081536 L450.243067,140.685382 L448.262298,138.30846 L447.31153,137.516152 L446.439991,136.961537 L445.964607,136.16923 L445.489222,135.456153 L443.983838,133.633846 L443.349992,133.237692 L442.319993,131.89077 L441.765377,131.494616 L440.497685,130.068462 L439.626147,129.276155 L437.566148,127.136925 L435.030764,124.601541 L434.238457,123.967695 L434.159226,123.967695 L433.287688,123.096157 L432.416149,122.38308 L432.257688,122.224619 L431.306919,122.937695 L430.831534,123.41308 L429.563843,124.363849 L429.009227,124.918464 L427.424612,125.869233 L426.553074,126.899233 L425.364613,127.295386 C424.809998,127.69154 424.255383,128.087694 423.700767,128.404617 C423.542306,128.483848 421.561537,130.623078 419.501538,131.653077 L419.501538,131.811539 L419.263846,131.97 L418.946923,132.445385 L417.520769,133.554615 L416.57,133.396154 L415.777693,132.920769 L415.619231,132.445385 L415.777693,131.732308 L415.619231,131.732308 L415.46077,131.573847 L415.777693,131.573847 L415.936154,131.256924 L416.094616,130.781539 L416.411539,129.989232 L416.49077,129.989232 L416.57,129.276155 L417.758462,127.69154 L418.471538,125.869233 L419.263846,124.839233 L419.73923,124.52231 L420.531538,123.571541 L421.165384,122.779234 L421.79923,121.907696 L421.79923,121.35308 L422.749998,120.798465 L423.066921,120.481542 L423.225383,119.926927 L423.383844,119.768466 L423.700767,119.610004 L424.334613,118.817697 L424.730767,118.183851 L425.04769,117.629235 L424.730767,117.391543 L424.176152,116.203082 L424.413844,115.410775 L424.889229,114.776929 L425.364613,114.697698 L425.760767,114.697698 L425.760767,114.539236 L425.998459,114.539236 L425.919228,114.697698 L426.07769,114.856159 L426.473844,115.093852 L426.949228,115.331544 L430.276919,111.290776 L433.208457,108.200777 L435.902302,104.873085 L438.120763,102.733855 L439.071532,101.862317 L439.150763,101.862317 L442.00307,98.772318 L442.319993,98.1384721 L444.1423,96.2369342 L444.934607,94.9692422 L447.469991,91.9584739 L449.767683,88.6307826 L450.55999,87.9177059 L451.193836,86.8877062 L453.491528,84.1938609 L454.75922,82.2130922 L455.709989,81.0246311 L456.660757,79.4400162 L456.97768,78.9646317 L456.97768,78.6477087 L456.819219,78.6477087 L456.819219,78.4100165 L456.97768,78.4100165 L456.97768,77.0630938 L457.215373,75.6369404 L457.294603,75.0823252 L458.245372,73.576941 L459.750757,72.5469413 L460.543064,72.7054028 L461.335371,73.0223258 L461.335371,73.4184795 C461.652294,73.3392488 461.889987,73.4977103 461.889987,73.893864 C461.573064,75.1615559 460.622295,76.3500171 459.829987,77.4592475 L459.116911,79.5984777 L458.245372,80.3907851 L457.928449,80.7869388 L457.215373,81.5792463 L456.97768,81.8169385 L456.026912,83.2430919 L455.472296,84.1146301 C455.076143,84.7484761 454.600758,85.3030913 454.204604,85.8577065 L454.363066,85.8577065 L454.363066,86.016168 L454.204604,86.016168 L454.125374,86.0953988 L454.046143,86.333091 L453.887681,86.7292447 L453.253835,87.4423214 L452.778451,88.7100134 L452.382297,89.1061671 L452.144605,89.2646286 L451.669221,89.7400131 L451.352298,90.1361668 L450.480759,91.0869357 L450.322298,91.4038587 L450.243067,91.4830895 L450.084606,91.5623202 L449.133837,92.5923199 L448.975375,92.9092429 L448.341529,93.5430888 L448.024606,93.9392426 L447.549222,94.414627 L446.836145,95.365396 L446.439991,95.7615497 Z M423.542306,126.820002 L424.413844,126.265387 L425.126921,125.631541 L425.364613,125.314618 L426.07769,124.760002 L426.473844,124.363849 L427.820766,123.492311 L428.058458,123.175388 L431.227688,121.036157 L431.306919,120.956927 L430.752304,120.24385 L429.643073,119.13462 L429.24692,118.976158 L428.929997,118.738466 L428.613074,118.738466 L428.533843,118.896927 L428.454612,118.896927 L428.375381,118.659235 L427.345382,118.738466 L427.266151,118.738466 L426.473844,119.689235 L425.523075,121.036157 L423.225383,123.809234 L422.353845,125.710771 L421.244614,127.295386 L421.086153,127.929232 L421.403076,128.246155 L423.542306,126.820002 Z M519.966144,115.410775 L520.045374,115.569236 C523.76922,114.856159 527.572295,114.222313 531.454602,113.588467 L538.347677,112.083083 L541.358445,112.241545 C544.686136,111.845391 548.013828,111.449237 551.42075,111.132314 L551.737673,111.132314 C551.816903,110.973853 551.975365,110.894622 552.133826,110.736161 L552.213057,110.102315 L552.371519,109.943853 L552.609211,109.785392 L552.926134,109.62693 L553.084595,109.151546 L553.084595,109.072315 L553.63921,108.913853 L557.679979,104.397701 L558.94767,102.971548 L559.264593,102.020779 L560.215362,101.545394 L562.829977,98.8515488 L563.701515,98.1384721 L564.25613,97.3461646 L565.999207,95.4446267 L567.504591,94.4938578 L567.504591,94.097704 L567.583822,93.9392426 L568.217668,93.6223196 L568.930744,93.0677044 L573.129974,88.8684749 L575.269204,87.2838599 L576.616127,85.8577065 L577.408434,85.3823221 L577.725357,85.0653991 L578.04228,84.8277068 L578.04228,84.6692454 L578.121511,84.5900146 L578.200742,84.6692454 L579.15151,84.3523224 L580.498433,83.2430919 L580.736125,83.0053997 L580.815356,83.0053997 C581.449202,82.609246 581.924587,82.1338615 582.558433,81.658477 L582.637663,81.4207848 L582.875356,81.1830926 L583.033817,81.2623233 L588.025354,77.617709 L590.956892,75.7161711 L590.956892,75.4784789 L591.273815,75.1615559 L591.590738,75.1615559 L591.590738,75.3200174 L593.333814,74.210787 L593.492275,74.0523255 L593.809198,73.8146332 L594.363814,73.1015565 L595.789967,72.7846336 L599.513812,70.6454034 C599.672274,70.2492497 600.068427,70.170019 600.464581,70.0907882 C600.781504,69.21925 601.811504,68.8230963 602.683042,68.8230963 L603.237657,68.6646348 C603.633811,68.5854041 603.950734,68.1892503 604.267657,68.2684811 L606.248425,67.3177121 L607.199194,66.7630969 L607.75381,66.6838662 L610.130732,65.812328 C611.160732,65.495405 613.299962,64.7823283 615.756115,64.3861746 C615.835346,63.8315593 616.548422,64.3069438 616.944576,64.0692516 C617.34073,64.1484823 617.816114,64.1484823 618.133037,64.0692516 L618.133037,63.9900208 L618.370729,63.9900208 C618.766883,64.3069438 619.242268,63.9900208 619.559191,64.1484823 C620.351498,64.2277131 621.143806,64.3069438 621.856882,64.4654053 L621.936113,64.4654053 L622.411497,64.3861746 L623.203805,64.6238668 L623.441497,64.7823283 L624.313035,65.0992513 L624.78842,65.812328 L624.946881,65.7330972 L625.184574,65.8915587 L625.343035,66.1292509 L625.422266,66.0500202 L625.501497,66.1292509 L625.422266,66.2084817 L625.422266,66.3669432 L625.501497,66.6046354 L625.659958,67.0007891 L625.739189,67.9515581 L626.214573,69.1400193 L626.214573,69.536173 C626.610727,69.6946345 626.452265,70.3284804 626.689958,70.6454034 C626.848419,71.0415572 627.165342,71.8338646 626.610727,72.3092491 C626.373035,73.0223258 626.135342,74.0523255 625.263804,74.2900177 C624.629958,74.6069407 623.916882,73.9730947 623.679189,73.3392488 C623.599959,72.8638643 623.441497,72.3884798 623.045343,72.1507876 C623.124574,71.7546339 622.966113,71.3584801 623.441497,71.1207879 C623.75842,70.7246342 623.599959,70.2492497 623.520728,69.853096 C623.599959,69.4569423 622.569959,68.8230963 623.362266,68.1100196 C623.045343,67.9515581 622.886882,67.7138659 622.807651,67.4761736 C622.886882,67.0007891 622.886882,66.8423277 622.807651,66.7630969 C622.490728,66.6046354 621.777651,67.0800199 621.460728,66.1292509 L621.223036,66.2084817 L620.272267,66.4461739 L619.796883,66.4461739 L618.529191,66.2084817 L618.44996,66.2084817 C618.212268,66.2084817 617.974576,66.1292509 617.816114,66.1292509 C617.261499,65.6538665 616.389961,65.8915587 615.676884,65.812328 C615.122269,65.6538665 614.567654,65.8915587 614.013038,66.0500202 L612.745347,66.3669432 L611.398424,66.9215584 L610.685347,66.7630969 C610.606116,66.8423277 610.606116,66.8423277 610.526886,66.8423277 L609.655347,67.1592506 L609.734578,67.3177121 L609.021501,67.4761736 L608.783809,67.4761736 C606.72381,68.2684811 604.822272,69.1400193 602.841503,70.170019 L602.762273,70.3284804 L602.128427,70.5661727 C601.732273,70.8830957 601.336119,71.3584801 600.781504,71.2792494 L600.702273,71.2792494 L599.751504,71.7546339 L599.27612,72.3092491 L598.959197,72.8638643 L597.770736,73.4184795 L597.374582,73.576941 L596.582274,73.6561718 L596.186121,73.893864 L595.314583,74.7654022 L595.314583,74.9238637 L595.156121,74.9238637 L595.07689,74.7654022 L594.918429,74.7654022 L594.601506,74.9238637 C593.492275,75.6369404 592.383045,76.3500171 591.273815,77.1423245 L590.956892,77.3800168 L589.055354,78.8854009 L588.183815,79.3607854 C588.104585,79.3607854 588.104585,79.4400162 588.025354,79.4400162 L587.549969,79.9154006 L585.410739,81.341554 L585.093816,81.5792463 L584.697663,81.8961693 L582.796125,83.4807842 L582.32074,83.7977072 L580.815356,84.9861683 L580.102279,85.9369373 L578.676126,87.0461677 L578.279972,87.3630907 L576.774588,88.5515519 L576.219973,88.7892441 L574.476897,90.2946283 L572.892282,91.8792432 L572.416897,92.1961662 L571.228436,93.3846273 L569.009975,95.682319 L568.217668,96.3953957 L567.583822,97.0292416 L565.682284,98.772318 L564.414592,100.356933 L563.939207,100.753087 L563.305361,100.990779 L560.215362,104.080778 L558.472286,106.140777 L557.759209,106.774623 L556.333056,108.438469 L554.66921,110.340007 L554.589979,110.65693 L554.589979,110.736161 C555.144595,110.736161 555.778441,110.65693 556.412287,110.65693 L556.412287,110.577699 L556.491517,110.498468 L556.570748,110.577699 L556.72921,110.577699 L556.966902,110.498468 L557.363056,110.419238 L558.313824,110.419238 L559.581516,110.102315 L560.215362,110.181545 L560.373824,110.260776 L560.611516,110.340007 C563.384592,110.102315 566.236899,109.943853 569.089206,109.785392 L570.356898,109.468469 L572.337666,109.389238 L575.031512,109.547699 C577.646126,109.468469 580.339972,109.389238 582.954586,109.389238 L583.192279,109.310007 L584.618432,109.389238 L587.708431,109.389238 L587.866892,109.468469 C589.134584,109.468469 590.481507,109.468469 591.82843,109.547699 L591.986891,109.468469 L592.858429,109.468469 L593.809198,109.547699 L597.13689,109.547699 L597.849966,109.468469 L598.087659,109.547699 L598.325351,109.706161 L598.325351,109.785392 C600.543812,109.864622 602.762273,109.943853 604.980733,110.102315 L605.297656,110.023084 L606.248425,110.102315 L607.436887,109.864622 L608.070733,109.864622 L608.308425,109.943853 L608.942271,110.102315 L609.496886,110.102315 L609.97227,110.260776 L609.813809,110.023084 L610.051501,109.943853 L610.368424,110.023084 L610.447655,110.102315 L610.447655,110.181545 L610.209963,110.181545 L610.447655,110.260776 L611.239962,110.260776 L611.398424,110.419238 L612.745347,110.65693 L613.933808,110.65693 L614.488423,110.736161 L616.152269,111.053084 L616.389961,110.894622 L619.242268,111.449237 C619.321498,111.449237 619.47996,111.528468 619.559191,111.528468 L620.351498,111.528468 C620.50996,111.528468 620.747652,111.528468 620.906113,111.607699 L622.173805,111.607699 L622.490728,111.76616 L622.72842,111.76616 L623.045343,111.845391 L630.809956,112.875391 L630.889187,112.875391 L630.889187,112.954621 L630.968418,113.033852 L631.047649,113.033852 L631.047649,113.192314 L631.126879,113.271544 L631.126879,113.588467 L630.968418,113.588467 C630.889187,113.667698 630.809956,113.667698 630.730726,113.667698 C628.591496,113.430006 626.848419,113.113083 625.263804,112.875391 L624.946881,112.875391 C624.867651,112.875391 624.78842,112.875391 624.709189,112.79616 L618.687652,112.003852 L618.133037,112.003852 C618.053806,112.003852 618.053806,111.924622 618.053806,111.924622 L617.657653,111.924622 L616.231499,111.76616 C613.696115,111.449237 611.081501,111.290776 607.595348,111.053084 L607.436887,111.132314 L607.436887,111.053084 L607.357656,111.053084 C607.040733,111.053084 606.72381,110.973853 606.406887,110.973853 L606.089964,111.132314 L605.773041,111.132314 L604.901503,111.211545 L604.109195,110.894622 C601.653042,110.815391 599.27612,110.65693 596.978428,110.65693 L596.899197,110.815391 L596.423813,110.815391 L593.333814,110.736161 L592.858429,110.815391 L592.858429,110.736161 L591.90766,110.815391 L590.481507,110.736161 L590.323046,110.815391 L590.006123,110.736161 L586.757662,110.736161 L586.282278,110.815391 L585.648432,110.736161 L585.173047,110.815391 L582.875356,110.736161 L582.24151,110.815391 L581.132279,110.736161 L580.023049,110.815391 L579.15151,110.815391 C577.804588,110.815391 576.457665,110.894622 575.189973,110.973853 L574.397666,111.053084 L573.129974,111.132314 L572.654589,111.132314 C569.48536,111.290776 566.236899,111.528468 563.067669,111.76616 L562.513054,111.76616 C562.1169,111.845391 561.799977,111.845391 561.403824,111.845391 L561.086901,111.924622 L561.00767,111.924622 L553.243057,112.637698 L552.926134,112.637698 L552.609211,113.033852 L551.658442,113.746929 L549.439981,116.361543 L549.043827,117.153851 L547.696905,118.500774 L547.379982,118.896927 L547.142289,119.689235 L545.399213,121.907696 L544.448444,123.096157 L541.91306,126.344617 L539.694599,129.751539 L538.981523,130.623078 L538.268446,131.732308 L537.6346,132.286923 L536.6046,133.950769 L536.208447,134.980769 L534.782293,136.803076 L534.227678,137.833075 L534.227678,138.149998 L533.989986,138.30846 L533.514601,139.576152 L532.484601,141.319228 L532.722294,141.55692 L532.405371,141.873843 L531.137679,144.488458 L530.662294,145.914611 L530.028448,147.182303 L530.028448,147.736919 L528.523064,150.589225 L528.285372,151.381533 L527.493065,152.649225 L527.096911,154.154609 L525.353834,157.561531 L525.036911,159.700761 L524.482296,161.364607 L524.006912,162.869991 L523.531527,163.899991 L522.976912,164.137683 L522.73922,164.613067 L521.867682,166.276913 L520.758451,167.306913 L520.203836,167.06922 L519.966144,166.831528 L519.728451,164.92999 L520.758451,162.394607 L522.422297,159.225377 L522.897681,157.957685 L522.818451,157.799223 L522.818451,157.4823 L522.659989,157.4823 L522.659989,157.40307 L522.73922,157.40307 L522.818451,157.244608 L522.976912,157.006916 L523.056143,156.531531 L523.373066,155.818455 L523.610758,154.550763 L523.927681,153.996148 L524.086142,153.837686 L524.403065,153.283071 L524.640758,152.807686 L524.799219,152.411533 L524.640758,152.490763 L524.640758,152.17384 L524.799219,151.936148 L524.87845,151.856917 L524.87845,152.17384 L525.195373,151.856917 L525.274604,151.698456 L525.353834,151.460764 L525.353834,151.381533 L525.512296,151.302302 L526.225373,150.03461 L526.700757,149.083841 L526.938449,148.529226 L527.730757,147.182303 L527.809988,146.86538 L528.285372,145.993842 C530.107679,142.349228 532.167679,138.783844 534.306909,135.297692 L534.940755,133.792307 L535.49537,133 L536.129216,132.207693 L537.238446,130.543847 L538.268446,129.117693 L538.902292,128.008463 L540.80383,125.55231 L541.120753,125.076925 L545.478444,119.13462 L546.033059,118.263081 L546.746136,117.629235 C546.825366,117.550005 546.825366,117.470774 546.904597,117.470774 L547.934597,115.886159 L548.409981,115.410775 L548.568443,114.93539 L549.28152,114.222313 L549.915365,113.350775 L547.776135,113.192314 L543.735367,113.588467 L542.784598,113.82616 L540.328445,113.984621 L539.298446,114.143083 L539.060753,114.143083 L535.257678,114.618467 L535.019985,114.697698 L532.643063,115.093852 L532.32614,115.490005 L531.850756,115.490005 L528.443833,116.044621 L526.621526,116.757697 L525.829219,116.995389 L524.799219,117.07462 L524.006912,117.391543 L522.263835,118.025389 C516.559222,120.085389 521.075374,118.896927 515.053838,119.926927 L514.974607,119.926927 L514.419992,120.006158 L511.171531,120.798465 L508.556916,121.828465 L506.655379,122.779234 L504.833071,123.492311 L504.278456,123.571541 L502.376918,124.284618 L499.762304,124.284618 L498.890765,123.571541 L498.732304,123.41308 L497.781535,123.016926 L497.781535,121.907696 L497.860766,121.828465 L497.702304,121.35308 L498.494612,120.560773 L498.33615,120.402311 L498.494612,120.323081 L498.653073,120.402311 L499.049227,120.402311 L499.524611,120.164619 L500.39615,119.689235 L502.376918,119.293081 L504.912302,118.10462 L506.338456,117.787697 L506.81384,117.946158 L508.319224,117.708466 L509.349224,117.391543 L510.458454,117.312312 L510.062301,117.153851 L510.616916,116.678466 L511.329992,116.520005 L511.488454,116.678466 L511.488454,116.836928 L510.933839,117.153851 L511.488454,116.995389 L511.805377,116.995389 L512.043069,116.916159 L513.073069,116.836928 L513.23153,116.678466 L512.914607,116.440774 L513.389992,116.123851 L514.26153,115.886159 L514.419992,115.886159 L514.419992,116.123851 L514.023838,116.440774 L514.657684,116.282313 L516.004606,116.282313 L516.40076,115.886159 L517.113837,115.886159 L519.966144,115.410775 Z M629.938454,119.847696 C629.859223,120.24385 629.779992,120.640004 629.621531,121.036157 L629.304608,121.670003 C629.225377,121.828465 629.304608,122.066157 629.225377,122.303849 L628.749993,123.096157 L628.195378,123.888464 L627.482301,124.363849 L626.689993,125.156156 L626.37307,125.55231 L625.976917,125.948464 L625.343071,126.423848 L625.184609,126.503079 C623.837687,127.69154 622.173841,128.80077 620.509995,129.83077 L620.509995,129.989232 L620.272303,129.989232 L619.400765,130.543847 L619.400765,130.623078 L619.242303,130.781539 L618.92538,130.781539 C618.84615,130.86077 618.84615,130.86077 618.766919,130.86077 L618.766919,131.098462 L618.449996,131.098462 L617.81615,131.573847 L617.736919,131.573847 L617.340765,131.97 L616.78615,132.128462 L616.469227,132.524616 L615.914612,132.920769 L615.597689,133 L614.726151,133.079231 L614.409228,133.237692 L613.933843,133.316923 L613.775382,133.316923 C612.50769,133.792307 611.39846,134.267692 610.289229,134.584615 L609.972306,134.822307 L609.734614,134.901538 L609.417691,135.297692 L609.179999,135.376922 L608.625383,135.218461 L608.070768,135.218461 L606.565384,135.13923 L605.139231,134.980769 L605.139231,134.901538 C605.06,134.901538 604.901538,134.980769 604.822308,134.980769 C604.346923,134.901538 604.03,134.822307 603.633847,134.663846 C603.316924,134.426153 601.653078,133.633846 601.573847,133.079231 L601.573847,132.366154 L601.336155,132.445385 L601.256924,131.97 L601.811539,130.543847 L602.366155,129.196924 L602.683078,128.72154 L603.633847,127.770771 L604.188462,127.374617 L604.346923,127.136925 L605.693846,126.186156 L606.882307,124.997695 L607.119999,124.601541 L607.436922,124.284618 L609.179999,122.937695 L609.655383,122.541542 L610.051537,122.462311 L610.209998,122.303849 L610.843844,121.907696 L611.002306,121.670003 L611.081537,121.828465 L612.983074,120.402311 L613.379228,120.006158 L613.61692,119.926927 L614.329997,119.451543 L614.884612,118.817697 L615.597689,118.183851 L616.70692,117.787697 L617.736919,116.916159 L618.370765,116.599236 L619.083842,116.203082 C619.876149,115.727698 620.589226,115.173082 621.302303,114.776929 L620.193072,114.618467 C619.638457,114.697698 619.163073,114.776929 618.687688,114.776929 L618.449996,114.856159 L618.370765,114.93539 L618.133073,114.856159 L617.182304,114.856159 C616.469227,114.93539 615.597689,115.093852 614.726151,115.093852 L614.64692,115.093852 L612.824613,115.173082 L611.873844,114.93539 L611.39846,114.618467 L611.160767,114.222313 L611.239998,113.667698 L611.873844,112.716929 L612.50769,112.479237 L613.299997,112.320775 L614.092305,112.241545 L614.726151,112.479237 L615.914612,112.79616 C617.103073,112.79616 618.370765,112.875391 619.717688,113.113083 L620.589226,112.954621 L621.856918,113.033852 L623.362302,112.79616 L623.599994,112.875391 L624.946917,112.716929 C625.184609,112.637698 625.422302,112.479237 625.659994,112.320775 L626.37307,111.845391 L627.006916,111.528468 L627.244609,111.449237 L627.640762,111.211545 L628.274608,111.132314 L628.987685,111.053084 C629.5423,110.973853 630.096915,110.894622 630.651531,110.973853 L631.206146,110.894622 L631.443838,111.132314 C631.760761,111.211545 631.998453,111.370007 632.315376,111.607699 L634.533837,111.370007 L634.613068,111.290776 L635.563837,111.053084 L636.752298,110.973853 L638.01999,110.577699 L638.495374,110.498468 L639.287682,110.419238 L640.872297,110.419238 L641.506143,110.340007 L642.456912,110.419238 L642.536142,110.419238 C642.853065,110.419238 643.249219,110.419238 643.566142,110.340007 C643.962296,110.340007 644.43768,110.260776 644.913065,110.260776 L645.229988,110.181545 L645.388449,110.102315 L645.546911,110.102315 L645.705372,110.260776 L646.180757,110.260776 L646.656141,110.102315 L647.210756,110.102315 L647.923833,110.181545 L648.082295,110.181545 L648.63691,110.102315 L649.112294,110.340007 L649.349987,110.340007 L649.66691,110.260776 L650.300756,110.340007 L650.617679,110.419238 C651.568447,110.577699 652.360755,110.736161 652.836139,110.894622 L653.153062,111.132314 L653.469985,111.132314 L653.707678,111.449237 C654.183062,111.68693 654.579216,112.003852 655.0546,112.320775 L655.213062,112.320775 L655.450754,112.558468 L655.846908,112.716929 L656.0846,113.192314 L656.401523,113.667698 L656.401523,113.90539 L655.926138,114.301544 L655.688446,114.856159 L654.97537,116.123851 L654.658447,116.599236 L654.658447,116.678466 C654.579216,116.757697 654.499985,116.836928 654.499985,116.916159 L654.183062,117.391543 L653.707678,117.550005 L653.707678,116.916159 L653.866139,116.678466 L653.866139,116.520005 C653.94537,116.203082 654.183062,115.806928 654.341524,115.490005 L654.499985,115.093852 L655.0546,113.667698 C655.0546,113.588467 654.97537,113.509237 654.97537,113.350775 L654.737677,112.954621 L653.94537,112.558468 L653.311524,112.083083 L652.123063,111.76616 C650.379986,111.370007 648.161525,111.370007 646.893833,111.370007 L645.705372,111.370007 L644.754603,111.449237 C643.883065,111.449237 643.486911,111.607699 642.694604,111.68693 C639.208451,111.924622 636.752298,112.241545 634.454606,112.558468 L634.296145,112.637698 L633.583068,112.79616 L633.186915,113.033852 L631.919223,112.954621 C630.651531,113.113083 629.383839,113.350775 627.957685,113.509237 L627.323839,113.746929 L626.689993,113.746929 L625.26384,113.90539 L624.867686,114.143083 C625.659994,114.380775 626.37307,114.697698 626.927686,114.93539 L627.086147,114.93539 L627.323839,115.173082 L627.482301,115.252313 L627.799224,115.490005 L628.43307,115.886159 L629.383839,116.916159 L629.621531,117.470774 L630.017685,118.421543 L629.938454,119.847696 Z M626.214609,122.937695 C626.848455,122.066157 627.40307,121.27385 627.719993,120.481542 L627.719993,120.006158 L628.036916,119.293081 L628.116147,118.183851 L628.116147,118.10462 L627.719993,117.312312 L627.244609,116.836928 L626.689993,116.440774 L626.056147,116.044621 L625.501532,115.806928 L624.788456,115.569236 L624.15461,115.173082 L623.679225,115.014621 C623.599994,115.014621 623.520764,114.93539 623.520764,114.93539 C622.490764,115.569236 621.539995,116.361543 620.113842,117.312312 L619.400765,117.866928 L618.84615,118.342312 L615.993843,120.006158 L615.201535,120.560773 L614.64692,120.877696 L613.062305,121.907696 L612.983074,121.986926 L612.586921,122.303849 L611.39846,122.937695 L610.447691,123.571541 L609.576152,124.126157 L609.179999,124.44308 L608.070768,125.235387 L607.991538,125.314618 L607.119999,126.344617 L606.406923,127.295386 L606.010769,127.850002 C605.931538,127.850002 605.931538,127.929232 605.852307,127.929232 C605.297692,128.563078 604.822308,129.276155 604.584615,129.910001 L604.584615,130.068462 L604.505385,130.385385 L604.346923,130.781539 L604.346923,131.256924 L604.267692,131.415385 L604.188462,131.653077 C604.267692,132.286923 604.426154,132.841539 604.822308,133.158461 L604.980769,133.158461 L605.456154,133.475384 C605.614615,133.475384 605.773077,133.554615 605.931538,133.554615 C608.546153,133.713077 609.100768,133.475384 611.715383,132.603846 C612.824613,132.286923 614.013074,131.811539 615.122305,131.336154 L615.201535,131.177693 L615.439228,131.177693 L616.389997,130.702308 L617.023842,130.068462 L618.370765,129.355386 L618.687688,129.276155 L618.84615,129.276155 L621.302303,127.612309 L621.539995,127.374617 L621.698456,127.295386 C622.332302,126.820002 622.966148,126.265387 623.599994,125.710771 L623.837687,125.393848 L623.996148,125.156156 L624.471533,124.760002 L624.946917,124.205387 L625.184609,123.809234 L625.501532,123.730003 L625.659994,123.41308 L625.897686,123.175388 L626.056147,122.937695 L626.214609,122.937695 Z M628.43307,112.241545 L630.809992,111.845391 C630.255377,111.528468 629.225377,111.924622 628.43307,112.241545 Z M683.102296,112.162314 L683.023065,112.241545 L683.023065,112.400006 L683.102296,112.637698 L682.943835,112.875391 L682.864604,113.192314 L683.023065,113.509237 L683.102296,113.509237 L682.864604,114.618467 L682.230758,115.014621 L681.834604,115.252313 L681.121527,114.856159 L679.933066,114.222313 L679.378451,114.063852 L679.21999,113.746929 L678.903067,113.746929 L679.061528,113.350775 L679.061528,112.716929 L679.21999,112.241545 L679.140759,111.528468 L679.140759,110.736161 L678.982297,110.577699 L678.903067,110.260776 L678.348451,110.023084 L677.952298,110.023084 L677.318452,109.785392 L676.288452,109.706161 C673.832299,109.943853 674.862299,109.310007 671.930761,110.102315 L670.979992,110.577699 L670.663069,110.498468 L668.286147,110.973853 L666.622301,111.76616 L665.275378,112.320775 L664.40384,112.79616 L663.769994,113.033852 L662.819225,113.271544 L661.472303,113.90539 L661.076149,114.063852 L658.936919,115.093852 L657.748458,115.886159 L657.669227,116.044621 L656.401535,116.757697 L655.92615,117.153851 L655.609227,117.391543 L655.133843,117.708466 L654.658458,118.183851 L654.183074,118.896927 L653.549228,119.293081 L653.153074,119.689235 L652.281536,120.24385 C651.806152,120.798465 651.568459,121.27385 651.489229,121.749234 C651.251536,122.541542 651.489229,121.986926 651.885382,122.462311 L652.123075,122.858465 L652.67769,123.175388 L653.073844,123.809234 L653.311536,124.205387 L653.390767,124.205387 C653.866151,124.52231 654.341535,124.680772 654.737689,124.918464 L655.767689,125.314618 L655.767689,125.473079 L657.114612,126.027694 L657.827688,126.186156 L658.223842,126.503079 L658.303073,126.503079 L658.382303,126.58231 L660.442303,127.374617 L661.313841,127.374617 L661.947687,127.533079 L662.581533,127.929232 L662.660764,127.850002 L662.819225,128.008463 L663.136148,128.246155 L664.641532,128.880001 L665.354609,128.959232 L665.829994,129.196924 L667.414608,129.196924 L667.810762,129.434616 L668.919993,129.593078 L670.346146,129.910001 L670.7423,130.226924 L672.089222,130.702308 L672.564607,131.494616 L672.723068,132.207693 L672.643838,132.366154 L672.564607,132.683077 L672.247684,133.079231 L671.693069,133.554615 L670.583838,134.03 L670.187685,134.03 L669.7123,134.346923 L668.6823,134.663846 L668.444608,134.584615 L667.57307,134.505384 L665.671532,134.980769 L662.185379,135.218461 L661.15538,135.218461 L657.98615,135.376922 L657.035381,135.376922 L656.005381,135.456153 L654.658458,135.376922 L653.70769,135.614615 L652.519228,135.852307 L650.459229,135.456153 L649.191537,135.456153 L648.39923,135.535384 L646.973076,135.773076 L646.497692,135.773076 L645.388461,136.010768 L644.913077,136.010768 L643.328462,136.406922 L642.140001,136.803076 L641.506155,136.723845 L640.634617,136.803076 L638.495386,137.27846 L638.257694,137.357691 L637.386156,137.516152 L637.227694,137.436922 L637.148464,137.516152 L636.831541,137.516152 L636.514618,137.674614 L636.197695,137.753845 L636.039233,137.595383 L636.039233,137.436922 L635.960003,137.436922 L636.039233,137.357691 L635.960003,137.27846 L636.118464,137.119999 L636.276926,137.040768 L636.356156,137.040768 L636.673079,136.723845 L639.050002,136.248461 L639.92154,136.010768 L640.080001,136.089999 L641.189232,135.852307 L641.981539,135.693845 L642.219231,135.693845 L644.437692,134.743076 L645.23,134.743076 L645.863846,134.584615 L647.052307,134.743076 L647.923845,134.663846 L648.557691,134.505384 L650.221537,134.346923 L651.568459,134.188461 L652.756921,134.10923 L654.420766,133.950769 L654.658458,134.03 L655.609227,134.03 L656.163843,133.792307 L656.401535,133.871538 C656.797689,133.871538 657.193842,133.792307 657.669227,133.792307 L658.382303,133.475384 L660.204611,133.316923 L661.551533,133 L663.928456,132.920769 L664.166148,133 L664.641532,132.841539 L665.513071,132.841539 L666.226147,132.445385 L667.57307,132.207693 L667.176916,132.049231 L666.939224,131.811539 L666.067686,131.653077 L665.037686,131.415385 L663.849225,130.940001 L663.769994,130.702308 L663.453071,130.623078 L662.660764,130.623078 L662.185379,130.068462 L660.204611,129.276155 L659.887688,129.117693 L659.333072,128.880001 L657.352304,127.929232 L657.273073,127.929232 L657.193842,127.850002 C655.688458,127.295386 654.341535,126.899233 653.866151,126.503079 L653.78692,126.503079 L653.78692,126.423848 L653.311536,126.186156 L652.915382,126.106925 L651.964613,125.710771 L651.726921,125.790002 L651.489229,125.314618 L651.093075,125.314618 L650.300767,124.760002 L649.349999,123.333849 L649.429229,122.145388 L649.50846,122.462311 C649.587691,122.145388 649.746152,121.828465 649.983844,121.511542 C650.142306,121.194619 650.459229,120.956927 650.61769,120.640004 L650.53846,120.560773 L651.568459,119.055389 L652.123075,118.421543 L652.281536,118.421543 L652.598459,117.866928 L653.073844,117.550005 L653.469997,116.995389 L653.945382,116.678466 L654.262305,116.361543 L655.054612,116.123851 L655.133843,116.123851 L655.371535,115.806928 L655.84692,115.569236 L655.92615,115.569236 L657.510765,114.618467 L658.223842,114.222313 L658.936919,113.588467 L659.174611,113.430006 L659.649995,113.033852 L659.966918,112.79616 L660.12538,112.400006 L660.442303,112.241545 L660.996918,112.241545 L661.551533,112.162314 L663.136148,111.68693 L664.166148,111.528468 L664.641532,111.449237 L664.879225,111.370007 L666.226147,110.973853 L666.46384,110.815391 C667.731531,110.65693 667.889993,110.260776 668.286147,110.102315 L668.840762,109.706161 L669.157685,109.706161 L670.029223,109.785392 L670.425377,109.62693 L670.821531,109.547699 C670.979992,109.547699 671.138453,109.547699 671.376146,109.468469 C672.089222,109.310007 673.039991,109.072315 674.069991,108.993084 L674.545376,108.834623 L675.179221,108.59693 L675.496144,108.438469 L676.605375,108.438469 L677.15999,108.280007 L678.506913,108.5177 L679.061528,108.676161 L679.29922,108.676161 L679.378451,108.755392 L680.170758,108.913853 L680.408451,108.834623 L681.43845,109.151546 L682.230758,109.706161 L682.46845,110.023084 L682.626912,110.340007 C682.785373,110.736161 682.864604,111.211545 683.023065,111.76616 L683.181527,111.76616 L683.102296,112.162314 Z M710.516145,87.6800137 L711.625375,87.6007829 L712.893067,87.6007829 L713.289221,87.2046292 L715.428451,84.2730916 L715.666143,84.0353994 L716.616912,82.7677075 L717.013066,82.3715537 L717.567681,81.658477 L717.805373,81.5000155 L718.676912,80.3115544 L718.676912,80.1530929 L718.993835,79.8361699 L719.152296,79.5192469 L719.310758,79.2815547 L719.073065,79.4400162 L718.993835,79.4400162 L718.993835,79.2815547 L719.152296,79.0438624 L719.469219,78.9646317 L719.469219,79.2023239 L719.786142,78.8061702 L720.182296,78.4100165 L720.57845,77.8554013 L720.65768,77.617709 L720.974603,77.1423245 L722.083834,76.4292478 L722.71768,75.7161711 L723.034603,75.4784789 L723.272295,75.3992482 L723.351526,75.2407867 L723.351526,75.1615559 L723.430756,75.0823252 L723.430756,75.1615559 L723.906141,74.1315562 L724.460756,73.576941 L725.569986,73.4977103 L726.203832,74.6069407 L726.283063,75.7161711 L725.173833,76.4292478 L724.381525,77.1423245 L723.82691,78.0138627 L723.430756,78.568478 L723.351526,79.0438624 L720.816142,81.4207848 L720.023834,81.9754 L716.854605,85.3823221 L715.111528,87.5215522 L716.062297,87.4423214 L716.37922,87.2046292 L716.616912,87.2046292 L716.854605,87.4423214 L718.835373,87.2838599 L718.835373,87.1253985 L724.143833,87.1253985 L726.441525,86.8877062 L728.818447,86.8877062 L729.056139,87.1253985 L729.689985,87.1253985 L729.689985,87.3630907 L731.749985,87.5215522 L732.463061,87.3630907 L733.572292,87.6007829 L734.919214,87.4423214 L735.47383,87.4423214 L736.186906,87.5215522 L737.137675,87.7592444 L737.692291,87.8384752 L738.326136,87.9177059 L740.306905,88.4723211 L740.465367,88.4723211 L741.099213,88.6307826 L742.129212,88.6307826 L742.763058,88.9477056 L744.506135,89.1853978 L744.823058,89.2646286 L745.298442,89.6607823 C745.615365,89.7400131 745.932288,89.8192438 746.249211,89.9777053 L746.328442,89.8984745 L746.407673,89.9777053 L748.467672,90.7700127 L748.626133,90.690782 L748.705364,90.8492435 L748.784595,90.8492435 L748.784595,90.9284742 L749.973056,91.4830895 L750.131518,91.4830895 L750.36921,91.6415509 C750.448441,91.7207817 750.527671,91.8000124 750.686133,91.8000124 L751.082286,91.8792432 L752.033055,92.3546276 L752.270748,92.7507814 L752.983824,93.3053966 L753.300747,93.3053966 L753.61767,93.6223196 L753.696901,93.7807811 C754.172286,94.097704 754.568439,94.4938578 754.964593,94.8107808 C754.964593,94.8900115 755.043824,94.8900115 755.043824,94.9692422 L755.281516,95.048473 L755.836131,95.8407804 L755.836131,95.9200112 L755.994593,96.0784727 L756.469977,96.2369342 L756.628439,96.3953957 L756.549208,97.0292416 L756.7869,97.5838568 L757.183054,99.0100103 L757.262285,99.6438562 C757.262285,99.723087 757.341515,99.8023177 757.420746,99.8815485 C757.420746,100.119241 757.420746,100.277702 757.341515,100.356933 L757.420746,100.436164 L757.183054,100.911548 L756.7869,100.436164 L756.707669,100.198471 C756.628439,100.04001 756.628439,99.8815485 756.628439,99.723087 L756.073823,98.6138565 L755.519208,97.1877031 L755.360747,96.8707801 L755.281516,96.7915494 L754.806132,96.0784727 L754.251516,95.4446267 C754.172286,95.365396 754.172286,95.365396 754.172286,95.2861652 L753.300747,94.4938578 L752.983824,94.3353963 L752.033055,93.6223196 L751.953825,93.5430888 C751.795363,93.4638581 751.557671,93.3846273 751.399209,93.2261658 L751.161517,93.1469351 L751.003056,93.0677044 L750.36921,92.6715506 L749.735364,92.4338584 L749.259979,92.2753969 L749.101518,92.0377047 L749.022287,91.9584739 L748.863826,91.9584739 L748.626133,91.8000124 L747.358441,91.324628 L745.853057,91.1661665 L745.298442,91.007705 L744.347673,90.5323205 L743.159212,90.2153975 C741.89152,89.8984745 740.544597,89.7400131 739.197675,89.5023208 L739.039213,89.5815516 L737.692291,89.3438593 L737.058445,89.2646286 L736.266137,89.2646286 L735.711522,89.3438593 L734.285368,89.1061671 L733.572292,89.0269363 L733.096907,89.1061671 L732.859215,89.0269363 L731.908446,88.8684749 C731.2746,88.7892441 730.561523,88.7892441 730.006908,88.7892441 L729.689985,88.8684749 L729.452293,88.7892441 C728.976909,88.7892441 728.580755,88.7100134 728.184601,88.7100134 C725.649217,88.7100134 723.113833,88.7100134 720.57845,88.7892441 L720.023834,88.8684749 L719.469219,89.1061671 L719.469219,89.3438593 L719.152296,89.3438593 L718.280758,89.8192438 L717.963835,89.8192438 L717.963835,90.056936 L717.726143,90.056936 L716.537682,90.5323205 L712.655375,90.5323205 C712.179991,91.1661665 711.625375,91.7207817 711.229222,92.2753969 L710.991529,92.7507814 L710.516145,93.1469351 C710.04076,93.7015503 709.565376,94.2561655 709.169222,94.8107808 L709.089991,95.048473 L707.980761,96.3161649 L706.7923,98.1384721 L706.079223,99.0100103 L704.7323,100.515394 L704.573839,100.673856 L702.038455,104.080778 L701.48384,104.793855 L699.899225,106.774623 L699.661533,107.250008 L699.265379,107.646161 L698.789995,108.359238 L698.235379,109.310007 L697.918456,109.706161 L697.363841,110.340007 L696.729995,110.973853 L696.254611,111.607699 L696.17538,111.68693 L695.937688,112.003852 L695.699996,112.558468 L694.511534,114.222313 L694.194611,115.173082 L690.470766,120.323081 L689.203074,121.749234 L687.539229,123.492311 L687.143075,123.888464 L686.350768,124.760002 L685.875383,125.55231 L685.716922,126.106925 L684.924614,127.216156 L684.290768,128.642309 L683.736153,129.434616 L682.626923,130.86077 L682.151538,132.524616 L682.151538,133 L682.072307,133.396154 L681.438461,134.426153 L681.359231,135.456153 L681.042308,136.327691 L680.883846,136.723845 L681.042308,137.040768 L681.438461,137.19923 L681.913846,137.119999 L683.339999,136.803076 L683.815384,136.644614 L683.973845,136.406922 L685.320768,136.089999 L686.033845,135.773076 L686.667691,135.535384 L687.143075,135.218461 L687.776921,135.13923 L688.489998,134.901538 L688.886151,134.663846 L689.203074,134.663846 L689.440767,134.584615 L691.500766,133.554615 L693.00615,132.920769 L693.00615,132.841539 L693.164612,132.841539 L693.402304,132.445385 L693.639996,132.445385 L694.115381,132.286923 L694.353073,132.286923 L694.590765,132.049231 L694.828457,132.049231 L697.126149,131.019231 L697.918456,130.543847 L698.235379,130.464616 L701.959224,128.72154 L702.751532,128.246155 L703.306147,128.008463 L704.256916,127.612309 L705.524608,126.978463 L705.603839,126.978463 L705.999992,126.503079 L706.871531,126.027694 L707.8223,125.710771 L708.93153,125.314618 L711.07076,124.205387 L711.07076,124.126157 L711.149991,124.126157 L711.546145,123.888464 L711.863068,123.650772 L712.972298,123.016926 L713.20999,123.016926 L713.20999,122.858465 L713.685375,122.779234 L714.081528,122.462311 L714.319221,122.224619 L714.715374,122.303849 L714.873836,122.700003 L714.953067,122.858465 L714.873836,123.096157 L714.636144,123.333849 L714.002298,123.41308 L713.764605,123.650772 L711.625375,125.076925 L710.991529,125.393848 L710.119991,125.948464 L708.93153,126.58231 L708.059992,126.978463 L707.267684,127.216156 L706.158454,127.770771 L705.603839,128.087694 L705.366146,128.325386 L704.494608,128.80077 L703.464609,129.434616 L702.117686,129.989232 L701.721532,130.147693 L701.008455,130.781539 L700.295379,131.019231 L699.503071,131.336154 L699.186148,131.415385 L698.710764,131.811539 L698.31461,132.049231 L697.918456,132.128462 L697.20538,132.683077 L696.967687,132.841539 L696.333841,132.920769 L695.779226,132.841539 L695.303842,133.079231 L693.798458,133.871538 L693.00615,134.267692 L691.89692,134.743076 L691.659227,134.743076 L690.708459,135.218461 L689.75769,136.089999 L688.965382,136.565384 L688.569228,136.644614 L688.489998,136.644614 L688.569228,136.803076 L688.489998,137.040768 L688.173075,137.119999 L687.69769,137.119999 L687.856152,136.803076 L687.539229,136.882307 L686.826152,137.357691 L686.58846,137.595383 L684.369999,138.387691 L681.438461,139.259229 L680.408462,139.179998 L680.170769,139.259229 L679.616154,139.100767 L679.299231,139.021537 L678.744616,138.783844 L678.506924,138.30846 L678.348462,137.595383 C678.269232,137.27846 678.427693,136.644614 678.427693,136.327691 C678.506924,135.693845 678.744616,134.901538 679.14077,133.950769 L679.14077,133.792307 L679.299231,133.237692 L679.536923,132.762308 L679.695385,132.603846 L679.695385,132.207693 L679.853846,131.97 L680.25,131.494616 L680.408462,131.256924 L680.883846,130.623078 L681.676154,129.196924 L681.834615,128.959232 L681.993077,128.325386 L682.151538,127.850002 L682.38923,127.533079 L682.864615,126.978463 L683.339999,126.265387 L683.577691,125.710771 L683.894614,125.235387 L684.290768,124.918464 L684.369999,124.760002 L684.924614,124.284618 L685.637691,123.650772 L686.033845,123.096157 L686.113075,122.779234 L686.271537,122.38308 L686.826152,122.066157 L687.856152,120.640004 L687.935382,120.402311 L688.173075,120.164619 C688.489998,119.768466 688.806921,119.293081 689.203074,118.896927 L689.678459,118.183851 L690.312305,117.312312 L690.787689,116.599236 L691.263074,115.96539 L691.500766,115.806928 L691.659227,115.569236 L691.97615,115.173082 L692.055381,115.093852 C692.213843,114.856159 692.451535,114.697698 692.530766,114.460006 L692.609996,114.301544 L692.847689,113.984621 L693.00615,113.82616 L693.243842,113.509237 L693.243842,113.350775 L693.560765,113.033852 L693.560765,112.637698 L694.828457,110.973853 L695.14538,110.815391 C695.14538,110.815391 695.224611,110.815391 695.224611,110.736161 L695.303842,110.340007 L696.17538,109.230776 L696.413072,109.072315 L696.729995,108.438469 L697.363841,107.883854 L700.295379,103.684624 L700.691532,103.367701 L701.959224,101.703856 L702.117686,101.545394 C702.434609,101.228471 702.751532,100.753087 703.068455,100.277702 L703.147686,100.198471 L703.306147,99.9607792 L703.385378,99.9607792 L704.65307,98.2969335 L704.65307,97.9007798 L705.920762,96.4746264 L706.158454,96.3161649 L706.554608,95.8407804 L706.633838,95.5238575 L708.456146,93.0677044 L708.93153,92.8300121 L709.486145,92.2753969 L709.486145,92.1961662 L709.803068,91.8792432 L709.803068,91.7207817 L710.04076,91.4038587 L710.278453,91.324628 L710.436914,91.0869357 L710.436914,91.007705 L710.595376,90.690782 L710.674606,90.4530898 L711.387683,89.5023208 L711.229222,89.5023208 L710.753837,89.7400131 L709.169222,89.8984745 L708.218453,90.056936 L705.841531,90.2153975 L703.385378,90.5323205 L702.751532,90.6115513 L702.038455,90.690782 L699.978456,91.007705 L699.34461,91.1661665 L695.303842,92.3546276 L694.590765,92.7507814 L694.273842,92.9092429 L693.323073,93.0677044 L692.213843,92.9884736 L690.787689,94.0184733 L690.153843,94.2561655 L688.569228,94.5730885 L686.746921,94.1769348 L686.113075,93.4638581 L686.033845,92.6715506 L686.192306,92.1169354 L686.271537,92.1169354 C686.271537,91.9584739 686.350768,91.8000124 686.509229,91.6415509 L686.667691,91.6415509 L686.58846,91.4830895 L686.58846,91.324628 L686.746921,91.6415509 C688.093844,91.007705 689.678459,90.5323205 691.579997,90.1361668 L692.847689,89.5815516 L694.115381,89.5023208 L694.590765,89.6607823 L697.839226,89.2646286 L697.997687,89.1853978 L698.076918,89.1853978 L700.216148,88.9477056 L700.295379,88.8684749 L700.45384,88.8684749 L701.879994,88.7100134 L702.117686,88.7892441 L702.59307,88.7892441 L702.672301,88.7100134 L703.068455,88.7100134 L705.049223,88.3138596 L705.207685,88.2346289 L705.603839,88.0761674 L706.079223,88.0761674 L707.426146,87.9177059 L707.663838,87.8384752 L708.218453,87.9177059 C708.614607,87.8384752 709.010761,87.7592444 709.406914,87.7592444 L709.486145,87.6800137 L710.516145,87.6800137 Z M713.051537,125.393848 L712.33846,126.503079 L712.33846,126.899233 L711.942306,127.295386 L711.704614,127.612309 C711.625384,127.612309 711.625384,127.69154 711.625384,127.770771 L711.625384,128.008463 L711.308461,128.483848 L711.22923,130.464616 C711.149999,130.543847 711.070768,131.653077 711.387691,132.049231 C711.863076,132.603846 711.625384,132.603846 713.606152,133.237692 L714.953075,133.554615 L715.983075,133.554615 L717.171536,133.396154 L722.95538,132.128462 L724.064611,131.653077 L727.15461,130.623078 L727.788456,130.226924 L728.105379,130.068462 L728.26384,130.068462 L733.017685,128.087694 L733.334608,128.087694 L733.889223,127.770771 L734.6023,127.612309 L737.216914,126.66154 L737.533837,126.58231 C740.386144,125.393848 741.495375,124.680772 744.268451,123.41308 L746.011527,122.779234 L746.090758,122.620772 L746.566142,122.38308 L747.992296,121.907696 L749.49768,121.27385 L749.49768,121.115388 L749.735372,121.115388 L750.686141,120.640004 L750.765372,120.481542 L755.043832,117.866928 L755.439986,117.787697 C755.994601,117.470774 756.549216,117.07462 757.183062,116.599236 C757.341524,116.440774 757.579216,116.520005 757.658447,116.678466 L757.658447,116.599236 L757.97537,116.361543 L758.292293,116.440774 L758.529985,117.153851 L758.133831,117.312312 L757.420754,117.550005 L757.024601,117.708466 L755.202293,118.976158 L754.80614,119.530773 L754.409986,119.530773 L754.093063,119.689235 C753.379986,120.164619 752.587679,120.560773 751.874602,120.956927 L751.795371,121.036157 L751.240756,121.35308 L750.923833,121.590773 L750.686141,121.590773 L748.150757,122.858465 L748.071526,123.016926 L747.754603,123.096157 L746.962296,123.492311 L745.853065,124.205387 L742.842297,125.473079 C741.891528,125.948464 740.940759,126.503079 739.98999,126.899233 L739.752298,127.136925 L735.790761,129.038463 L735.473838,129.276155 L735.315376,129.038463 L734.443838,129.593078 L733.493069,129.751539 L732.859223,130.068462 L732.779993,130.068462 C731.749993,130.543847 730.719993,130.940001 729.689993,131.336154 L728.501532,131.97 L726.045379,133.158461 L725.411533,133.316923 L724.460764,133.475384 L723.113842,133.871538 L722.321534,133.950769 L722.004611,134.10923 L721.687688,134.346923 L720.657688,134.584615 L720.499227,134.584615 C719.548458,134.901538 718.439228,135.13923 717.329997,135.297692 L717.092305,135.535384 L716.696151,135.614615 L716.775382,135.614615 L715.190767,135.931538 L714.715383,135.773076 L713.843844,136.089999 L711.942306,135.773076 L710.19923,134.901538 L709.406923,133.792307 L709.010769,132.762308 L708.773077,131.653077 L708.773077,130.306155 L708.852307,130.147693 L708.773077,129.989232 L708.773077,129.434616 L709.327692,127.453848 L709.882307,126.503079 L710.516153,125.076925 L710.991538,124.284618 L711.149999,124.126157 L711.387691,123.492311 L711.863076,123.096157 L712.100768,122.541542 L712.576152,121.828465 L712.813845,121.590773 L713.685383,121.194619 L714.002306,120.798465 L714.556921,120.560773 L715.190767,120.085389 L715.349229,120.006158 L716.141536,119.293081 L716.854613,118.738466 L717.409228,117.946158 L717.726151,117.629235 L718.122305,117.153851 L718.439228,116.916159 L718.914612,116.757697 L719.073074,116.520005 L719.469227,116.123851 L720.103073,115.886159 L720.499227,115.727698 C722.242303,114.460006 724.064611,113.113083 725.966148,112.003852 L726.12461,111.845391 L726.916917,111.290776 L727.946917,110.894622 C728.026148,110.894622 728.105379,110.894622 728.105379,110.815391 L729.056147,110.181545 L729.610763,109.864622 L729.848455,109.785392 L730.957685,109.62693 C731.829224,109.310007 732.700762,108.993084 733.5723,108.755392 L734.285377,108.359238 L735.077684,108.359238 L735.553069,108.200777 L735.790761,108.359238 C736.424607,108.359238 737.058453,108.359238 737.613068,108.438469 L737.692299,108.359238 L737.929991,108.280007 L738.088452,108.359238 L738.326145,108.280007 L738.405375,108.200777 L738.88076,108.359238 L738.88076,108.280007 L738.959991,108.280007 L738.88076,108.438469 L739.118452,108.59693 L739.356144,108.59693 L739.435375,108.755392 L739.514606,108.755392 L739.98999,108.993084 L740.069221,109.072315 C740.465375,109.389238 740.782298,109.62693 740.861529,110.023084 L741.099221,110.102315 L741.01999,110.260776 L741.099221,110.260776 L741.01999,110.340007 L741.01999,110.736161 L741.099221,111.053084 L740.940759,111.607699 L740.782298,111.845391 L740.782298,112.320775 L740.465375,113.509237 L739.831529,114.539236 L739.039221,115.331544 L738.167683,115.886159 L737.454606,116.361543 L734.68153,117.787697 L734.285377,118.10462 L733.730761,118.263081 C731.908454,119.530773 729.927686,120.640004 727.946917,121.670003 L727.867686,121.828465 L725.569995,122.937695 L724.539995,123.650772 L722.479996,124.52231 L720.974611,125.076925 L718.835381,125.473079 L717.567689,125.55231 L717.013074,125.55231 L716.53769,125.314618 L716.379228,124.918464 L716.53769,124.680772 L717.092305,123.571541 L718.201535,122.541542 L719.231535,122.145388 L719.865381,122.145388 L720.419996,122.303849 L721.053842,122.462311 L722.083842,122.462311 L723.034611,122.303849 L724.064611,121.907696 L724.381534,121.907696 L724.539995,121.670003 L726.837687,120.877696 L728.976917,119.847696 L730.006916,119.293081 L730.40307,118.817697 L731.43307,118.421543 L731.591531,118.10462 L732.779993,117.708466 L733.096915,117.391543 L734.126915,116.599236 L737.692299,113.588467 L738.009222,113.192314 L738.167683,112.637698 L738.326145,112.400006 L738.722298,111.211545 L738.643068,111.132314 L738.563837,110.973853 L738.405375,110.577699 L738.009222,110.102315 L737.454606,109.864622 L736.899991,109.706161 L736.028453,109.706161 L735.473838,109.785392 L735.156915,109.706161 C733.017685,110.181545 730.719993,111.370007 729.37307,112.003852 L728.422302,112.479237 L728.184609,112.716929 L727.788456,113.033852 L727.471533,112.954621 C727.392302,113.033852 727.392302,113.033852 727.313071,113.033852 L727.313071,113.192314 L726.837687,113.350775 L726.679225,113.509237 L726.520764,113.509237 L724.777687,114.460006 L723.906149,115.173082 L723.351534,115.727698 L722.559226,115.96539 L722.242303,116.123851 C721.529227,116.599236 720.895381,117.153851 720.182304,117.708466 L719.78615,118.183851 L718.756151,119.13462 L718.201535,119.689235 L717.329997,120.481542 L716.220767,121.590773 L715.111536,122.858465 L714.873844,123.096157 L714.39846,123.809234 L713.843844,124.601541 L713.051537,125.393848 Z M752.270767,126.106925 L751.716152,126.66154 L751.557691,126.978463 L752.191537,126.423848 L753.300767,125.631541 L753.61769,125.393848 L753.776151,125.314618 L753.934613,125.314618 L753.934613,125.235387 L754.568459,124.997695 L754.251536,124.680772 L754.72692,124.680772 L756.153074,123.333849 L756.390766,123.333849 L757.658458,122.066157 L759.084611,121.194619 L760.431534,120.164619 L760.589996,120.006158 L760.669226,120.006158 L762.17461,118.817697 L762.253841,118.738466 L764.472302,117.153851 L764.472302,117.233082 L765.898456,116.282313 L766.294609,115.886159 L766.611532,115.806928 L767.324609,115.331544 L767.48307,115.173082 L767.562301,115.173082 L769.146916,114.222313 L769.780762,113.588467 L770.256147,113.271544 L771.444608,112.79616 L772.316146,112.003852 L773.187684,111.528468 L774.85153,110.973853 L775.564606,110.65693 C776.119222,110.340007 777.069991,109.864622 778.179221,109.389238 L778.654606,108.993084 L780.080759,108.438469 L781.506912,107.963084 L781.744605,107.804623 L782.457681,107.408469 L783.329219,107.091546 L783.883835,106.853854 L784.913834,106.774623 C786.260757,106.37847 787.528449,106.140777 788.558449,106.220008 L789.033833,106.061547 L789.350756,106.37847 C789.74691,106.536931 790.063833,106.774623 790.301525,107.012316 C790.380756,107.091546 790.459987,107.170777 790.459987,107.329239 L791.014602,107.963084 L790.85614,110.023084 L789.905371,111.924622 L788.954602,112.241545 L788.083064,112.241545 L787.60768,111.68693 L787.60768,110.894622 L787.211526,111.211545 L787.211526,110.815391 L787.369987,110.736161 L787.449218,110.340007 L787.369987,109.785392 L787.211526,108.755392 L786.894603,108.359238 L785.706142,108.5177 L784.596911,108.993084 L784.200758,109.072315 L783.566912,108.993084 L782.695374,109.389238 L782.219989,109.468469 L779.050759,110.102315 C777.545375,110.736161 776.277683,111.370007 775.802299,111.607699 L775.326914,111.845391 L774.93076,112.241545 L771.761531,113.90539 L770.573069,114.618467 L770.097685,115.093852 L768.592301,115.886159 L768.196147,116.123851 L767.48307,116.678466 L766.294609,117.470774 L765.819225,118.025389 L763.521533,119.530773 L760.114611,122.38308 L759.639227,123.096157 L759.084611,123.492311 L758.054612,124.601541 L757.103843,125.473079 L756.78692,125.631541 L756.153074,126.027694 L755.598459,126.58231 L755.519228,126.740771 L754.885382,127.295386 L754.172305,128.087694 L753.776151,128.483848 L753.459228,128.72154 L752.666921,129.513847 L752.349998,130.068462 L752.033075,130.306155 L751.716152,130.702308 L750.923845,131.415385 L749.576922,132.762308 L749.180768,133.396154 L748.863845,133.792307 L748.467692,134.505384 L748.30923,134.980769 L748.229999,135.13923 L748.071538,135.535384 L747.596153,136.010768 L746.328461,136.961537 L745.536154,137.516152 L744.823077,137.357691 L744.426924,136.803076 L744.426924,136.723845 C744.268462,136.486153 744.189231,136.248461 744.268462,135.931538 L744.268462,135.614615 L744.426924,135.456153 L744.664616,134.505384 L744.506154,134.663846 L744.426924,134.346923 L744.664616,133.792307 L744.981539,132.841539 L745.536154,132.049231 L745.615385,131.89077 L745.615385,131.732308 L745.932308,131.494616 L746.17,131.098462 L746.17,130.940001 L746.883077,130.385385 L747.041538,130.385385 L747.27923,130.226924 L748.229999,128.880001 L748.784615,128.087694 L749.022307,128.008463 L749.41846,127.216156 L749.893845,126.027694 L750.44846,125.55231 L750.606922,125.076925 L751.47846,123.967695 L751.716152,123.809234 L752.746152,122.224619 L752.746152,121.907696 L754.093074,120.24385 L754.885382,118.896927 L755.202305,118.421543 L755.598459,117.708466 L755.677689,117.470774 L755.836151,117.312312 L756.390766,116.520005 L756.390766,116.282313 L756.866151,115.490005 L757.341535,115.410775 L757.579227,115.569236 L758.054612,115.014621 L758.292304,114.460006 L758.371535,114.063852 L758.371535,113.82616 L758.054612,113.667698 L758.292304,113.430006 L758.213073,113.588467 L758.450765,113.271544 L758.371535,113.192314 L758.054612,113.588467 C757.658458,113.984621 757.341535,113.588467 757.341535,113.192314 L757.499997,113.033852 L757.499997,112.875391 L757.579227,112.637698 L757.816919,112.241545 L757.89615,112.083083 L757.737689,111.845391 L757.658458,111.924622 L757.262304,111.76616 L757.262304,111.528468 L757.420766,111.370007 L757.737689,111.290776 L757.579227,111.290776 L757.737689,111.211545 L757.579227,111.211545 L757.499997,110.894622 L757.816919,110.419238 L758.213073,110.65693 L758.450765,110.260776 L758.450765,109.943853 L758.529996,109.706161 L758.371535,109.62693 L758.767688,109.547699 L758.767688,109.151546 L758.92615,109.072315 L759.084611,109.072315 L759.401534,108.755392 L759.797688,108.755392 L760.352303,108.834623 L760.748457,108.913853 L761.06538,108.755392 L761.06538,108.59693 L761.382303,108.359238 L761.699226,108.438469 L761.936918,108.438469 L762.09538,108.59693 L762.016149,108.676161 L761.619995,108.834623 C762.253841,109.072315 762.570764,109.468469 762.649995,109.864622 L762.729226,109.943853 L762.649995,110.181545 C762.649995,111.132314 761.857688,112.241545 760.986149,113.271544 L761.06538,113.430006 L760.193842,114.539236 L759.718457,114.618467 L759.005381,115.410775 L758.688458,115.806928 L758.450765,116.361543 L758.371535,116.361543 C757.975381,116.916159 757.579227,117.550005 757.103843,118.025389 C757.103843,118.10462 757.024612,118.025389 757.024612,118.025389 L756.549228,118.738466 L756.390766,119.21385 L756.073843,119.768466 L755.360766,120.956927 L754.885382,121.511542 L754.72692,121.828465 L754.251536,122.620772 L753.300767,124.126157 L752.746152,125.314618 L752.270767,126.106925 Z" id="Mark-Foster"></path>
        </g>
    </g>
</svg>